{"glyphs":{"0":{"ha":1389,"x_min":0,"x_max":1111,"o":"m 833 278 l 833 1389 l 278 1389 l 278 278 l 833 278 m 0 0 l 0 1667 l 1111 1667 l 1111 0 l 0 0 z "},"1":{"ha":555,"x_min":0,"x_max":278,"o":"m 0 0 l 0 1667 l 278 1667 l 278 0 l 0 0 z "},"2":{"ha":1389,"x_min":0,"x_max":1111,"o":"m 0 0 l 0 555 l 278 555 l 278 278 l 1111 278 l 1111 0 l 0 0 m 278 555 l 278 833 l 555 833 l 555 555 l 278 555 m 555 833 l 555 1111 l 833 1111 l 833 833 l 555 833 m 833 1111 l 833 1389 l 1111 1389 l 1111 1111 l 833 1111 m 0 1389 l 0 1667 l 833 1667 l 833 1389 l 0 1389 z "},"3":{"ha":1389,"x_min":0,"x_max":1111,"o":"m 0 0 l 0 278 l 833 278 l 833 0 l 0 0 m 833 278 l 833 833 l 1111 833 l 1111 278 l 833 278 m 0 833 l 0 1111 l 833 1111 l 833 833 l 0 833 m 833 1111 l 833 1389 l 1111 1389 l 1111 1111 l 833 1111 m 0 1389 l 0 1667 l 833 1667 l 833 1389 l 0 1389 z "},"4":{"ha":1389,"x_min":0,"x_max":1111,"o":"m 833 0 l 833 833 l 0 833 l 0 1667 l 278 1667 l 278 1111 l 833 1111 l 833 1667 l 1111 1667 l 1111 0 l 833 0 z "},"5":{"ha":1389,"x_min":0,"x_max":1111,"o":"m 0 0 l 0 278 l 833 278 l 833 0 l 0 0 m 833 278 l 833 833 l 1111 833 l 1111 278 l 833 278 m 0 833 l 0 1667 l 1111 1667 l 1111 1389 l 278 1389 l 278 1111 l 833 1111 l 833 833 l 0 833 z "},"6":{"ha":1389,"x_min":0,"x_max":1111,"o":"m 278 0 l 278 278 l 833 278 l 833 0 l 278 0 m 833 278 l 833 833 l 1111 833 l 1111 278 l 833 278 m 0 278 l 0 1389 l 278 1389 l 278 1111 l 833 1111 l 833 833 l 278 833 l 278 278 l 0 278 m 278 1389 l 278 1667 l 1111 1667 l 1111 1389 l 278 1389 z "},"7":{"ha":1389,"x_min":0,"x_max":1111,"o":"m 0 0 l 0 278 l 278 278 l 278 0 l 0 0 m 278 278 l 278 555 l 555 555 l 555 278 l 278 278 m 555 555 l 555 833 l 833 833 l 833 555 l 555 555 m 833 833 l 833 1389 l 0 1389 l 0 1667 l 1111 1667 l 1111 833 l 833 833 z "},"8":{"ha":1389,"x_min":0,"x_max":1111,"o":"m 278 0 l 278 278 l 833 278 l 833 0 l 278 0 m 0 278 l 0 833 l 278 833 l 278 278 l 0 278 m 833 278 l 833 833 l 1111 833 l 1111 278 l 833 278 m 278 833 l 278 1111 l 833 1111 l 833 833 l 278 833 m 0 1111 l 0 1389 l 278 1389 l 278 1111 l 0 1111 m 833 1111 l 833 1389 l 1111 1389 l 1111 1111 l 833 1111 m 278 1389 l 278 1667 l 833 1667 l 833 1389 l 278 1389 z "},"9":{"ha":1389,"x_min":0,"x_max":1111,"o":"m 833 1111 l 833 1389 l 278 1389 l 278 1111 l 833 1111 m 0 0 l 0 278 l 833 278 l 833 833 l 0 833 l 0 1667 l 1111 1667 l 1111 0 l 0 0 z "}," ":{"ha":555,"x_min":0,"x_max":0,"o":""},"!":{"ha":555,"x_min":0,"x_max":278,"o":"m 0 0 l 0 278 l 278 278 l 278 0 l 0 0 m 0 555 l 0 1667 l 278 1667 l 278 555 l 0 555 z "},"\"":{"ha":1111,"x_min":0,"x_max":833,"o":"m 0 1111 l 0 1667 l 278 1667 l 278 1111 l 0 1111 m 555 1111 l 555 1667 l 833 1667 l 833 1111 l 555 1111 z "},"#":{"ha":1667,"x_min":0,"x_max":1389,"o":"m 833 555 l 833 833 l 555 833 l 555 555 l 833 555 m 278 0 l 278 278 l 0 278 l 0 555 l 278 555 l 278 833 l 0 833 l 0 1111 l 278 1111 l 278 1389 l 555 1389 l 555 1111 l 833 1111 l 833 1389 l 1111 1389 l 1111 1111 l 1389 1111 l 1389 833 l 1111 833 l 1111 555 l 1389 555 l 1389 278 l 1111 278 l 1111 0 l 833 0 l 833 278 l 555 278 l 555 0 l 278 0 z "},"$":{"ha":1667,"x_min":0,"x_max":1389,"o":"m 1111 555 l 1111 833 l 833 833 l 833 555 l 1111 555 m 555 1111 l 555 1389 l 278 1389 l 278 1111 l 555 1111 m 555 0 l 555 278 l 0 278 l 0 555 l 555 555 l 555 833 l 0 833 l 0 1667 l 555 1667 l 555 1944 l 833 1944 l 833 1667 l 1389 1667 l 1389 1389 l 833 1389 l 833 1111 l 1389 1111 l 1389 278 l 833 278 l 833 0 l 555 0 z "},"'":{"ha":555,"x_min":0,"x_max":278,"o":"m 0 1111 l 0 1667 l 278 1667 l 278 1111 l 0 1111 z "},"(":{"ha":833,"x_min":0,"x_max":555,"o":"m 278 0 l 278 278 l 555 278 l 555 0 l 278 0 m 0 278 l 0 1389 l 278 1389 l 278 278 l 0 278 m 278 1389 l 278 1667 l 555 1667 l 555 1389 l 278 1389 z "},")":{"ha":1111,"x_min":278,"x_max":833,"o":"m 278 0 l 278 278 l 555 278 l 555 0 l 278 0 m 555 278 l 555 1389 l 833 1389 l 833 278 l 555 278 m 278 1389 l 278 1667 l 555 1667 l 555 1389 l 278 1389 z "},"+":{"ha":1111,"x_min":0,"x_max":833,"o":"m 278 555 l 278 833 l 0 833 l 0 1111 l 278 1111 l 278 1389 l 555 1389 l 555 1111 l 833 1111 l 833 833 l 555 833 l 555 555 l 278 555 z "},",":{"ha":555,"x_min":0,"x_max":278,"o":"m 0 -278 l 0 278 l 278 278 l 278 -278 l 0 -278 z "},"-":{"ha":1111,"x_min":0,"x_max":833,"o":"m 0 833 l 0 1111 l 833 1111 l 833 833 l 0 833 z "},".":{"ha":555,"x_min":0,"x_max":278,"o":"m 0 0 l 0 278 l 278 278 l 278 0 l 0 0 z "},"/":{"ha":1111,"x_min":0,"x_max":833,"o":"m 0 0 l 0 555 l 278 555 l 278 0 l 0 0 m 278 555 l 278 1111 l 555 1111 l 555 555 l 278 555 m 555 1111 l 555 1667 l 833 1667 l 833 1111 l 555 1111 z "},":":{"ha":555,"x_min":0,"x_max":278,"o":"m 0 278 l 0 555 l 278 555 l 278 278 l 0 278 m 0 833 l 0 1111 l 278 1111 l 278 833 l 0 833 z "},";":{"ha":555,"x_min":0,"x_max":278,"o":"m 0 0 l 0 555 l 278 555 l 278 0 l 0 0 m 0 833 l 0 1111 l 278 1111 l 278 833 l 0 833 z "},"=":{"ha":1111,"x_min":0,"x_max":833,"o":"m 0 555 l 0 833 l 833 833 l 833 555 l 0 555 m 0 1111 l 0 1389 l 833 1389 l 833 1111 l 0 1111 z "},"?":{"ha":1667,"x_min":0,"x_max":1389,"o":"m 555 0 l 555 278 l 833 278 l 833 0 l 555 0 m 555 555 l 555 833 l 833 833 l 833 555 l 555 555 m 833 833 l 833 1111 l 1111 1111 l 1111 833 l 833 833 m 0 1111 l 0 1389 l 278 1389 l 278 1111 l 0 1111 m 1111 1111 l 1111 1389 l 1389 1389 l 1389 1111 l 1111 1111 m 278 1389 l 278 1667 l 1111 1667 l 1111 1389 l 278 1389 z "},"A":{"ha":1389,"x_min":0,"x_max":1111,"o":"m 0 0 l 0 1389 l 278 1389 l 278 833 l 833 833 l 833 1389 l 1111 1389 l 1111 0 l 833 0 l 833 555 l 278 555 l 278 0 l 0 0 m 278 1389 l 278 1667 l 833 1667 l 833 1389 l 278 1389 z "},"B":{"ha":1389,"x_min":0,"x_max":1111,"o":"m 833 278 l 833 833 l 1111 833 l 1111 278 l 833 278 m 833 1111 l 833 1389 l 1111 1389 l 1111 1111 l 833 1111 m 0 0 l 0 1667 l 833 1667 l 833 1389 l 278 1389 l 278 1111 l 833 1111 l 833 833 l 278 833 l 278 278 l 833 278 l 833 0 l 0 0 z "},"C":{"ha":1389,"x_min":0,"x_max":1111,"o":"m 278 0 l 278 278 l 833 278 l 833 0 l 278 0 m 833 278 l 833 555 l 1111 555 l 1111 278 l 833 278 m 0 278 l 0 1389 l 278 1389 l 278 278 l 0 278 m 833 1111 l 833 1389 l 1111 1389 l 1111 1111 l 833 1111 m 278 1389 l 278 1667 l 833 1667 l 833 1389 l 278 1389 z "},"D":{"ha":1389,"x_min":0,"x_max":1111,"o":"m 833 278 l 833 1389 l 1111 1389 l 1111 278 l 833 278 m 0 0 l 0 1667 l 833 1667 l 833 1389 l 278 1389 l 278 278 l 833 278 l 833 0 l 0 0 z "},"E":{"ha":1389,"x_min":0,"x_max":1111,"o":"m 0 0 l 0 1667 l 1111 1667 l 1111 1389 l 278 1389 l 278 1111 l 1111 1111 l 1111 833 l 278 833 l 278 278 l 1111 278 l 1111 0 l 0 0 z "},"F":{"ha":1389,"x_min":0,"x_max":1111,"o":"m 0 0 l 0 1667 l 1111 1667 l 1111 1389 l 278 1389 l 278 1111 l 1111 1111 l 1111 833 l 278 833 l 278 0 l 0 0 z "},"G":{"ha":1389,"x_min":0,"x_max":1111,"o":"m 278 0 l 278 278 l 833 278 l 833 0 l 278 0 m 833 278 l 833 833 l 555 833 l 555 1111 l 1111 1111 l 1111 278 l 833 278 m 0 278 l 0 1389 l 278 1389 l 278 278 l 0 278 m 278 1389 l 278 1667 l 1111 1667 l 1111 1389 l 278 1389 z "},"H":{"ha":1389,"x_min":0,"x_max":1111,"o":"m 0 0 l 0 1667 l 278 1667 l 278 1111 l 833 1111 l 833 1667 l 1111 1667 l 1111 0 l 833 0 l 833 833 l 278 833 l 278 0 l 0 0 z "},"I":{"ha":555,"x_min":0,"x_max":278,"o":"m 0 0 l 0 1667 l 278 1667 l 278 0 l 0 0 z "},"J":{"ha":1389,"x_min":0,"x_max":1111,"o":"m 278 0 l 278 278 l 833 278 l 833 0 l 278 0 m 0 278 l 0 555 l 278 555 l 278 278 l 0 278 m 833 278 l 833 1389 l 0 1389 l 0 1667 l 1111 1667 l 1111 278 l 833 278 z "},"K":{"ha":1389,"x_min":0,"x_max":1111,"o":"m 833 0 l 833 555 l 1111 555 l 1111 0 l 833 0 m 555 555 l 555 833 l 833 833 l 833 555 l 555 555 m 555 1111 l 555 1389 l 833 1389 l 833 1111 l 555 1111 m 0 0 l 0 1667 l 278 1667 l 278 1111 l 555 1111 l 555 833 l 278 833 l 278 0 l 0 0 m 833 1389 l 833 1667 l 1111 1667 l 1111 1389 l 833 1389 z "},"L":{"ha":1389,"x_min":0,"x_max":1111,"o":"m 0 0 l 0 1667 l 278 1667 l 278 278 l 1111 278 l 1111 0 l 0 0 z "},"M":{"ha":1667,"x_min":0,"x_max":1389,"o":"m 555 833 l 555 1111 l 833 1111 l 833 833 l 555 833 m 0 0 l 0 1667 l 278 1667 l 278 1389 l 555 1389 l 555 1111 l 278 1111 l 278 0 l 0 0 m 1111 0 l 1111 1111 l 833 1111 l 833 1389 l 1111 1389 l 1111 1667 l 1389 1667 l 1389 0 l 1111 0 z "},"N":{"ha":1389,"x_min":0,"x_max":1111,"o":"m 0 0 l 0 1667 l 278 1667 l 278 1389 l 555 1389 l 555 1111 l 278 1111 l 278 0 l 0 0 m 833 0 l 833 833 l 555 833 l 555 1111 l 833 1111 l 833 1667 l 1111 1667 l 1111 0 l 833 0 z "},"O":{"ha":1389,"x_min":0,"x_max":1111,"o":"m 278 0 l 278 278 l 833 278 l 833 0 l 278 0 m 0 278 l 0 1389 l 278 1389 l 278 278 l 0 278 m 833 278 l 833 1389 l 1111 1389 l 1111 278 l 833 278 m 278 1389 l 278 1667 l 833 1667 l 833 1389 l 278 1389 z "},"P":{"ha":1389,"x_min":0,"x_max":1111,"o":"m 833 1111 l 833 1389 l 278 1389 l 278 1111 l 833 1111 m 0 0 l 0 1667 l 1111 1667 l 1111 833 l 278 833 l 278 0 l 0 0 z "},"Q":{"ha":1667,"x_min":0,"x_max":1389,"o":"m 278 0 l 278 278 l 833 278 l 833 0 l 278 0 m 1111 0 l 1111 278 l 1389 278 l 1389 0 l 1111 0 m 833 278 l 833 555 l 1111 555 l 1111 278 l 833 278 m 555 555 l 555 833 l 833 833 l 833 555 l 555 555 m 0 278 l 0 1389 l 278 1389 l 278 278 l 0 278 m 1111 555 l 1111 1389 l 1389 1389 l 1389 555 l 1111 555 m 278 1389 l 278 1667 l 1111 1667 l 1111 1389 l 278 1389 z "},"R":{"ha":1389,"x_min":0,"x_max":1111,"o":"m 833 0 l 833 833 l 1111 833 l 1111 0 l 833 0 m 833 1111 l 833 1389 l 1111 1389 l 1111 1111 l 833 1111 m 0 0 l 0 1667 l 833 1667 l 833 1389 l 278 1389 l 278 1111 l 833 1111 l 833 833 l 278 833 l 278 0 l 0 0 z "},"S":{"ha":1389,"x_min":0,"x_max":1111,"o":"m 0 0 l 0 278 l 833 278 l 833 833 l 0 833 l 0 1667 l 1111 1667 l 1111 1389 l 278 1389 l 278 1111 l 1111 1111 l 1111 0 l 0 0 z "},"T":{"ha":1667,"x_min":0,"x_max":1389,"o":"m 555 0 l 555 1389 l 0 1389 l 0 1667 l 1389 1667 l 1389 1389 l 833 1389 l 833 0 l 555 0 z "},"U":{"ha":1389,"x_min":0,"x_max":1111,"o":"m 278 0 l 278 278 l 833 278 l 833 0 l 278 0 m 0 278 l 0 1667 l 278 1667 l 278 278 l 0 278 m 833 278 l 833 1667 l 1111 1667 l 1111 278 l 833 278 z "},"V":{"ha":1667,"x_min":0,"x_max":1389,"o":"m 555 0 l 555 278 l 833 278 l 833 0 l 555 0 m 278 278 l 278 555 l 555 555 l 555 278 l 278 278 m 833 278 l 833 555 l 1111 555 l 1111 278 l 833 278 m 0 555 l 0 1667 l 278 1667 l 278 555 l 0 555 m 1111 555 l 1111 1667 l 1389 1667 l 1389 555 l 1111 555 z "},"W":{"ha":1667,"x_min":0,"x_max":1389,"o":"m 278 0 l 278 278 l 555 278 l 555 0 l 278 0 m 833 0 l 833 278 l 1111 278 l 1111 0 l 833 0 m 555 278 l 555 833 l 833 833 l 833 278 l 555 278 m 0 278 l 0 1667 l 278 1667 l 278 278 l 0 278 m 1111 278 l 1111 1667 l 1389 1667 l 1389 278 l 1111 278 z "},"X":{"ha":1667,"x_min":0,"x_max":1389,"o":"m 0 0 l 0 278 l 278 278 l 278 0 l 0 0 m 1111 0 l 1111 278 l 1389 278 l 1389 0 l 1111 0 m 278 278 l 278 555 l 555 555 l 555 278 l 278 278 m 833 278 l 833 555 l 1111 555 l 1111 278 l 833 278 m 555 555 l 555 833 l 833 833 l 833 555 l 555 555 m 278 833 l 278 1111 l 555 1111 l 555 833 l 278 833 m 833 833 l 833 1111 l 1111 1111 l 1111 833 l 833 833 m 0 1111 l 0 1667 l 278 1667 l 278 1111 l 0 1111 m 1111 1111 l 1111 1667 l 1389 1667 l 1389 1111 l 1111 1111 z "},"Y":{"ha":1667,"x_min":0,"x_max":1389,"o":"m 555 0 l 555 833 l 833 833 l 833 0 l 555 0 m 278 833 l 278 1111 l 555 1111 l 555 833 l 278 833 m 833 833 l 833 1111 l 1111 1111 l 1111 833 l 833 833 m 0 1111 l 0 1667 l 278 1667 l 278 1111 l 0 1111 m 1111 1111 l 1111 1667 l 1389 1667 l 1389 1111 l 1111 1111 z "},"Z":{"ha":1389,"x_min":0,"x_max":1111,"o":"m 0 0 l 0 555 l 278 555 l 278 278 l 1111 278 l 1111 0 l 0 0 m 278 555 l 278 833 l 555 833 l 555 555 l 278 555 m 555 833 l 555 1111 l 833 1111 l 833 833 l 555 833 m 833 1111 l 833 1389 l 0 1389 l 0 1667 l 1111 1667 l 1111 1111 l 833 1111 z "},"[":{"ha":1111,"x_min":0,"x_max":833,"o":"m 0 0 l 0 1667 l 833 1667 l 833 1389 l 278 1389 l 278 278 l 833 278 l 833 0 l 0 0 z "},"\\":{"ha":1111,"x_min":0,"x_max":833,"o":"m 555 0 l 555 555 l 833 555 l 833 0 l 555 0 m 278 555 l 278 1111 l 555 1111 l 555 555 l 278 555 m 0 1111 l 0 1667 l 278 1667 l 278 1111 l 0 1111 z "},"]":{"ha":1111,"x_min":0,"x_max":833,"o":"m 0 0 l 0 278 l 555 278 l 555 1389 l 0 1389 l 0 1667 l 833 1667 l 833 0 l 0 0 z "},"^":{"ha":1111,"x_min":0,"x_max":833,"o":"m 0 1111 l 0 1389 l 278 1389 l 278 1111 l 0 1111 m 555 1111 l 555 1389 l 833 1389 l 833 1111 l 555 1111 m 278 1389 l 278 1667 l 555 1667 l 555 1389 l 278 1389 z "},"_":{"ha":1389,"x_min":0,"x_max":1111,"o":"m 0 0 l 0 278 l 1111 278 l 1111 0 l 0 0 z "},"`":{"ha":1111,"x_min":278,"x_max":833,"o":"m 555 1111 l 555 1389 l 833 1389 l 833 1111 l 555 1111 m 278 1389 l 278 1667 l 555 1667 l 555 1389 l 278 1389 z "},"a":{"ha":1389,"x_min":0,"x_max":1111,"o":"m 833 278 l 833 555 l 278 555 l 278 278 l 833 278 m 0 0 l 0 833 l 833 833 l 833 1111 l 1111 1111 l 1111 0 l 0 0 m 0 1111 l 0 1389 l 833 1389 l 833 1111 l 0 1111 z "},"b":{"ha":1389,"x_min":0,"x_max":1111,"o":"m 833 278 l 833 555 l 278 555 l 278 278 l 833 278 m 0 0 l 0 1389 l 278 1389 l 278 833 l 1111 833 l 1111 0 l 0 0 z "},"c":{"ha":1389,"x_min":0,"x_max":1111,"o":"m 278 0 l 278 278 l 833 278 l 833 0 l 278 0 m 833 278 l 833 555 l 1111 555 l 1111 278 l 833 278 m 0 278 l 0 1111 l 278 1111 l 278 278 l 0 278 m 833 833 l 833 1111 l 1111 1111 l 1111 833 l 833 833 m 278 1111 l 278 1389 l 833 1389 l 833 1111 l 278 1111 z "},"d":{"ha":1389,"x_min":0,"x_max":1111,"o":"m 833 278 l 833 555 l 278 555 l 278 278 l 833 278 m 0 0 l 0 833 l 833 833 l 833 1389 l 1111 1389 l 1111 0 l 0 0 z "},"e":{"ha":1389,"x_min":0,"x_max":1111,"o":"m 833 833 l 833 1111 l 278 1111 l 278 833 l 833 833 m 0 0 l 0 1389 l 1111 1389 l 1111 555 l 278 555 l 278 278 l 1111 278 l 1111 0 l 0 0 z "},"f":{"ha":1389,"x_min":0,"x_max":1111,"o":"m 0 0 l 0 1389 l 1111 1389 l 1111 1111 l 278 1111 l 278 833 l 1111 833 l 1111 555 l 278 555 l 278 0 l 0 0 z "},"g":{"ha":1389,"x_min":0,"x_max":1111,"o":"m 0 0 l 0 1389 l 1111 1389 l 1111 1111 l 278 1111 l 278 278 l 833 278 l 833 555 l 555 555 l 555 833 l 1111 833 l 1111 0 l 0 0 z "},"h":{"ha":1389,"x_min":0,"x_max":1111,"o":"m 0 0 l 0 1389 l 278 1389 l 278 833 l 1111 833 l 1111 0 l 833 0 l 833 555 l 278 555 l 278 0 l 0 0 z "},"i":{"ha":555,"x_min":0,"x_max":278,"o":"m 0 0 l 0 833 l 278 833 l 278 0 l 0 0 m 0 1111 l 0 1389 l 278 1389 l 278 1111 l 0 1111 z "},"j":{"ha":1111,"x_min":0,"x_max":833,"o":"m 0 0 l 0 278 l 555 278 l 555 833 l 833 833 l 833 0 l 0 0 m 555 1111 l 555 1389 l 833 1389 l 833 1111 l 555 1111 z "},"k":{"ha":1389,"x_min":0,"x_max":1111,"o":"m 833 0 l 833 278 l 1111 278 l 1111 0 l 833 0 m 833 555 l 833 833 l 1111 833 l 1111 555 l 833 555 m 0 0 l 0 1389 l 278 1389 l 278 555 l 833 555 l 833 278 l 278 278 l 278 0 l 0 0 z "},"l":{"ha":555,"x_min":0,"x_max":278,"o":"m 0 0 l 0 1389 l 278 1389 l 278 0 l 0 0 z "},"m":{"ha":1667,"x_min":0,"x_max":1389,"o":"m 555 0 l 555 833 l 833 833 l 833 0 l 555 0 m 0 0 l 0 1389 l 278 1389 l 278 1111 l 555 1111 l 555 833 l 278 833 l 278 0 l 0 0 m 1111 0 l 1111 833 l 833 833 l 833 1111 l 1111 1111 l 1111 1389 l 1389 1389 l 1389 0 l 1111 0 z "},"n":{"ha":1389,"x_min":0,"x_max":1111,"o":"m 0 0 l 0 1389 l 278 1389 l 278 1111 l 555 1111 l 555 833 l 278 833 l 278 0 l 0 0 m 833 0 l 833 555 l 555 555 l 555 833 l 833 833 l 833 1389 l 1111 1389 l 1111 0 l 833 0 z "},"o":{"ha":1389,"x_min":0,"x_max":1111,"o":"m 278 0 l 278 278 l 833 278 l 833 0 l 278 0 m 0 278 l 0 1111 l 278 1111 l 278 278 l 0 278 m 833 278 l 833 1111 l 1111 1111 l 1111 278 l 833 278 m 278 1111 l 278 1389 l 833 1389 l 833 1111 l 278 1111 z "},"p":{"ha":1389,"x_min":0,"x_max":1111,"o":"m 833 833 l 833 1111 l 278 1111 l 278 833 l 833 833 m 0 0 l 0 1389 l 1111 1389 l 1111 555 l 278 555 l 278 0 l 0 0 z "},"q":{"ha":1389,"x_min":0,"x_max":1111,"o":"m 833 833 l 833 1111 l 278 1111 l 278 833 l 833 833 m 833 0 l 833 555 l 0 555 l 0 1389 l 1111 1389 l 1111 0 l 833 0 z "},"r":{"ha":1389,"x_min":0,"x_max":1111,"o":"m 0 0 l 0 1389 l 1111 1389 l 1111 1111 l 278 1111 l 278 0 l 0 0 z "},"s":{"ha":1389,"x_min":0,"x_max":1111,"o":"m 0 0 l 0 278 l 833 278 l 833 555 l 0 555 l 0 1389 l 1111 1389 l 1111 1111 l 278 1111 l 278 833 l 1111 833 l 1111 0 l 0 0 z "},"t":{"ha":1389,"x_min":0,"x_max":1111,"o":"m 0 0 l 0 1389 l 278 1389 l 278 833 l 1111 833 l 1111 555 l 278 555 l 278 278 l 1111 278 l 1111 0 l 0 0 z "},"u":{"ha":1389,"x_min":0,"x_max":1111,"o":"m 278 0 l 278 278 l 833 278 l 833 0 l 278 0 m 0 278 l 0 1389 l 278 1389 l 278 278 l 0 278 m 833 278 l 833 1389 l 1111 1389 l 1111 278 l 833 278 z "},"v":{"ha":1667,"x_min":0,"x_max":1389,"o":"m 555 0 l 555 278 l 833 278 l 833 0 l 555 0 m 278 278 l 278 555 l 555 555 l 555 278 l 278 278 m 833 278 l 833 555 l 1111 555 l 1111 278 l 833 278 m 0 555 l 0 1389 l 278 1389 l 278 555 l 0 555 m 1111 555 l 1111 1389 l 1389 1389 l 1389 555 l 1111 555 z "},"w":{"ha":1667,"x_min":0,"x_max":1389,"o":"m 278 0 l 278 278 l 555 278 l 555 0 l 278 0 m 833 0 l 833 278 l 1111 278 l 1111 0 l 833 0 m 555 278 l 555 833 l 833 833 l 833 278 l 555 278 m 0 278 l 0 1389 l 278 1389 l 278 278 l 0 278 m 1111 278 l 1111 1389 l 1389 1389 l 1389 278 l 1111 278 z "},"x":{"ha":1667,"x_min":0,"x_max":1389,"o":"m 0 0 l 0 278 l 278 278 l 278 0 l 0 0 m 1111 0 l 1111 278 l 1389 278 l 1389 0 l 1111 0 m 278 278 l 278 555 l 555 555 l 555 278 l 278 278 m 833 278 l 833 555 l 1111 555 l 1111 278 l 833 278 m 555 555 l 555 833 l 833 833 l 833 555 l 555 555 m 278 833 l 278 1111 l 555 1111 l 555 833 l 278 833 m 833 833 l 833 1111 l 1111 1111 l 1111 833 l 833 833 m 0 1111 l 0 1389 l 278 1389 l 278 1111 l 0 1111 m 1111 1111 l 1111 1389 l 1389 1389 l 1389 1111 l 1111 1111 z "},"y":{"ha":1389,"x_min":0,"x_max":1111,"o":"m 0 0 l 0 278 l 833 278 l 833 555 l 0 555 l 0 1389 l 278 1389 l 278 833 l 833 833 l 833 1389 l 1111 1389 l 1111 0 l 0 0 z "},"z":{"ha":1389,"x_min":0,"x_max":1111,"o":"m 0 0 l 0 555 l 278 555 l 278 278 l 1111 278 l 1111 0 l 0 0 m 278 555 l 278 833 l 555 833 l 555 555 l 278 555 m 555 833 l 555 1111 l 0 1111 l 0 1389 l 1111 1389 l 1111 1111 l 833 1111 l 833 833 l 555 833 z "},"|":{"ha":555,"x_min":0,"x_max":278,"o":"m 0 0 l 0 1667 l 278 1667 l 278 0 l 0 0 z "},"~":{"ha":1389,"x_min":0,"x_max":1111,"o":"m 0 833 l 0 1111 l 278 1111 l 278 833 l 0 833 m 555 833 l 555 1111 l 833 1111 l 833 833 l 555 833 m 278 1111 l 278 1389 l 555 1389 l 555 1111 l 278 1111 m 833 1111 l 833 1389 l 1111 1389 l 1111 1111 l 833 1111 z "},"¡":{"ha":555,"x_min":0,"x_max":278,"o":"m 0 0 l 0 1111 l 278 1111 l 278 0 l 0 0 m 0 1389 l 0 1667 l 278 1667 l 278 1389 l 0 1389 z "},"µ":{"ha":1389,"x_min":0,"x_max":1111,"o":"m 0 -555 l 0 1389 l 278 1389 l 278 278 l 833 278 l 833 0 l 278 0 l 278 -555 l 0 -555 m 833 278 l 833 1389 l 1111 1389 l 1111 278 l 833 278 z "},"¿":{"ha":1389,"x_min":0,"x_max":1111,"o":"m 278 0 l 278 278 l 833 278 l 833 0 l 278 0 m 0 278 l 0 555 l 278 555 l 278 278 l 0 278 m 833 278 l 833 555 l 1111 555 l 1111 278 l 833 278 m 278 555 l 278 833 l 555 833 l 555 555 l 278 555 m 555 833 l 555 1111 l 833 1111 l 833 833 l 555 833 m 555 1389 l 555 1667 l 833 1667 l 833 1389 l 555 1389 z "},"À":{"ha":1389,"x_min":0,"x_max":1111,"o":"m 0 0 l 0 1389 l 278 1389 l 278 833 l 833 833 l 833 1389 l 1111 1389 l 1111 0 l 833 0 l 833 555 l 278 555 l 278 0 l 0 0 m 278 1389 l 278 1667 l 833 1667 l 833 1389 l 278 1389 m 555 1944 l 555 2222 l 1111 2222 l 1111 1944 l 555 1944 m 0 2222 l 0 2500 l 555 2500 l 555 2222 l 0 2222 z "},"Á":{"ha":1389,"x_min":0,"x_max":1111,"o":"m 0 0 l 0 1389 l 278 1389 l 278 833 l 833 833 l 833 1389 l 1111 1389 l 1111 0 l 833 0 l 833 555 l 278 555 l 278 0 l 0 0 m 278 1389 l 278 1667 l 833 1667 l 833 1389 l 278 1389 m 0 1944 l 0 2222 l 555 2222 l 555 1944 l 0 1944 m 555 2222 l 555 2500 l 1111 2500 l 1111 2222 l 555 2222 z "},"Â":{"ha":1389,"x_min":0,"x_max":1111,"o":"m 0 0 l 0 1389 l 278 1389 l 278 833 l 833 833 l 833 1389 l 1111 1389 l 1111 0 l 833 0 l 833 555 l 278 555 l 278 0 l 0 0 m 278 1389 l 278 1667 l 833 1667 l 833 1389 l 278 1389 m 0 1944 l 0 2222 l 278 2222 l 278 1944 l 0 1944 m 833 1944 l 833 2222 l 1111 2222 l 1111 1944 l 833 1944 m 278 2222 l 278 2500 l 833 2500 l 833 2222 l 278 2222 z "},"Ã":{"ha":1389,"x_min":0,"x_max":1111,"o":"m 0 0 l 0 1389 l 278 1389 l 278 833 l 833 833 l 833 1389 l 1111 1389 l 1111 0 l 833 0 l 833 555 l 278 555 l 278 0 l 0 0 m 278 1389 l 278 1667 l 833 1667 l 833 1389 l 278 1389 m 0 1944 l 0 2222 l 278 2222 l 278 1944 l 0 1944 m 555 1944 l 555 2222 l 833 2222 l 833 1944 l 555 1944 m 278 2222 l 278 2500 l 555 2500 l 555 2222 l 278 2222 m 833 2222 l 833 2500 l 1111 2500 l 1111 2222 l 833 2222 z "},"Ä":{"ha":1389,"x_min":0,"x_max":1111,"o":"m 0 0 l 0 1389 l 278 1389 l 278 833 l 833 833 l 833 1389 l 1111 1389 l 1111 0 l 833 0 l 833 555 l 278 555 l 278 0 l 0 0 m 278 1389 l 278 1667 l 833 1667 l 833 1389 l 278 1389 m 0 1944 l 0 2222 l 278 2222 l 278 1944 l 0 1944 m 833 1944 l 833 2222 l 1111 2222 l 1111 1944 l 833 1944 z "},"Å":{"ha":1389,"x_min":0,"x_max":1111,"o":"m 0 0 l 0 1389 l 278 1389 l 278 833 l 833 833 l 833 1389 l 1111 1389 l 1111 0 l 833 0 l 833 555 l 278 555 l 278 0 l 0 0 m 278 1389 l 278 1667 l 833 1667 l 833 1389 l 278 1389 m 278 1944 l 278 2222 l 833 2222 l 833 1944 l 278 1944 m 0 2222 l 0 2778 l 278 2778 l 278 2222 l 0 2222 m 833 2222 l 833 2778 l 1111 2778 l 1111 2222 l 833 2222 m 278 2778 l 278 3055 l 833 3055 l 833 2778 l 278 2778 z "},"Æ":{"ha":2222,"x_min":0,"x_max":1944,"o":"m 0 0 l 0 1389 l 278 1389 l 278 833 l 833 833 l 833 1389 l 278 1389 l 278 1667 l 1944 1667 l 1944 1389 l 1111 1389 l 1111 1111 l 1944 1111 l 1944 833 l 1111 833 l 1111 278 l 1944 278 l 1944 0 l 833 0 l 833 555 l 278 555 l 278 0 l 0 0 z "},"Ç":{"ha":1389,"x_min":0,"x_max":1111,"o":"m 278 -555 l 278 -278 l 555 -278 l 555 -555 l 278 -555 m 555 -278 l 555 0 l 278 0 l 278 278 l 833 278 l 833 -278 l 555 -278 m 833 278 l 833 555 l 1111 555 l 1111 278 l 833 278 m 0 278 l 0 1389 l 278 1389 l 278 278 l 0 278 m 833 1111 l 833 1389 l 1111 1389 l 1111 1111 l 833 1111 m 278 1389 l 278 1667 l 833 1667 l 833 1389 l 278 1389 z "},"È":{"ha":1389,"x_min":0,"x_max":1111,"o":"m 0 0 l 0 1667 l 1111 1667 l 1111 1389 l 278 1389 l 278 1111 l 1111 1111 l 1111 833 l 278 833 l 278 278 l 1111 278 l 1111 0 l 0 0 m 555 1944 l 555 2222 l 1111 2222 l 1111 1944 l 555 1944 m 0 2222 l 0 2500 l 555 2500 l 555 2222 l 0 2222 z "},"É":{"ha":1389,"x_min":0,"x_max":1111,"o":"m 0 0 l 0 1667 l 1111 1667 l 1111 1389 l 278 1389 l 278 1111 l 1111 1111 l 1111 833 l 278 833 l 278 278 l 1111 278 l 1111 0 l 0 0 m 0 1944 l 0 2222 l 555 2222 l 555 1944 l 0 1944 m 555 2222 l 555 2500 l 1111 2500 l 1111 2222 l 555 2222 z "},"Ê":{"ha":1389,"x_min":0,"x_max":1111,"o":"m 0 0 l 0 1667 l 1111 1667 l 1111 1389 l 278 1389 l 278 1111 l 1111 1111 l 1111 833 l 278 833 l 278 278 l 1111 278 l 1111 0 l 0 0 m 0 1944 l 0 2222 l 278 2222 l 278 1944 l 0 1944 m 833 1944 l 833 2222 l 1111 2222 l 1111 1944 l 833 1944 m 278 2222 l 278 2500 l 833 2500 l 833 2222 l 278 2222 z "},"Ë":{"ha":1389,"x_min":0,"x_max":1111,"o":"m 0 0 l 0 1667 l 1111 1667 l 1111 1389 l 278 1389 l 278 1111 l 1111 1111 l 1111 833 l 278 833 l 278 278 l 1111 278 l 1111 0 l 0 0 m 0 1944 l 0 2222 l 278 2222 l 278 1944 l 0 1944 m 833 1944 l 833 2222 l 1111 2222 l 1111 1944 l 833 1944 z "},"Ì":{"ha":833,"x_min":0,"x_max":555,"o":"m 278 0 l 278 1667 l 555 1667 l 555 0 l 278 0 m 278 1944 l 278 2222 l 555 2222 l 555 1944 l 278 1944 m 0 2222 l 0 2500 l 278 2500 l 278 2222 l 0 2222 z "},"Í":{"ha":833,"x_min":0,"x_max":555,"o":"m 0 0 l 0 1667 l 278 1667 l 278 0 l 0 0 m 0 1944 l 0 2222 l 278 2222 l 278 1944 l 0 1944 m 278 2222 l 278 2500 l 555 2500 l 555 2222 l 278 2222 z "},"Î":{"ha":1111,"x_min":0,"x_max":833,"o":"m 278 0 l 278 1667 l 555 1667 l 555 0 l 278 0 m 0 1944 l 0 2222 l 278 2222 l 278 1944 l 0 1944 m 555 1944 l 555 2222 l 833 2222 l 833 1944 l 555 1944 m 278 2222 l 278 2500 l 555 2500 l 555 2222 l 278 2222 z "},"Ï":{"ha":1111,"x_min":0,"x_max":833,"o":"m 278 0 l 278 1667 l 555 1667 l 555 0 l 278 0 m 0 1944 l 0 2222 l 278 2222 l 278 1944 l 0 1944 m 555 1944 l 555 2222 l 833 2222 l 833 1944 l 555 1944 z "},"Ð":{"ha":1667,"x_min":0,"x_max":1389,"o":"m 1111 278 l 1111 1389 l 1389 1389 l 1389 278 l 1111 278 m 278 0 l 278 833 l 0 833 l 0 1111 l 278 1111 l 278 1667 l 1111 1667 l 1111 1389 l 555 1389 l 555 1111 l 833 1111 l 833 833 l 555 833 l 555 278 l 1111 278 l 1111 0 l 278 0 z "},"Ñ":{"ha":1389,"x_min":0,"x_max":1111,"o":"m 0 0 l 0 1667 l 278 1667 l 278 1389 l 555 1389 l 555 1111 l 278 1111 l 278 0 l 0 0 m 833 0 l 833 833 l 555 833 l 555 1111 l 833 1111 l 833 1667 l 1111 1667 l 1111 0 l 833 0 m 0 1944 l 0 2222 l 278 2222 l 278 1944 l 0 1944 m 555 1944 l 555 2222 l 833 2222 l 833 1944 l 555 1944 m 278 2222 l 278 2500 l 555 2500 l 555 2222 l 278 2222 m 833 2222 l 833 2500 l 1111 2500 l 1111 2222 l 833 2222 z "},"Ò":{"ha":1389,"x_min":0,"x_max":1111,"o":"m 278 0 l 278 278 l 833 278 l 833 0 l 278 0 m 0 278 l 0 1389 l 278 1389 l 278 278 l 0 278 m 833 278 l 833 1389 l 1111 1389 l 1111 278 l 833 278 m 278 1389 l 278 1667 l 833 1667 l 833 1389 l 278 1389 m 555 1944 l 555 2222 l 1111 2222 l 1111 1944 l 555 1944 m 0 2222 l 0 2500 l 555 2500 l 555 2222 l 0 2222 z "},"Ó":{"ha":1389,"x_min":0,"x_max":1111,"o":"m 278 0 l 278 278 l 833 278 l 833 0 l 278 0 m 0 278 l 0 1389 l 278 1389 l 278 278 l 0 278 m 833 278 l 833 1389 l 1111 1389 l 1111 278 l 833 278 m 278 1389 l 278 1667 l 833 1667 l 833 1389 l 278 1389 m 0 1944 l 0 2222 l 555 2222 l 555 1944 l 0 1944 m 555 2222 l 555 2500 l 1111 2500 l 1111 2222 l 555 2222 z "},"Þ":{"ha":1389,"x_min":0,"x_max":1111,"o":"m 833 833 l 833 1111 l 278 1111 l 278 833 l 833 833 m 0 0 l 0 1667 l 278 1667 l 278 1389 l 1111 1389 l 1111 555 l 278 555 l 278 0 l 0 0 z "},"ß":{"ha":1389,"x_min":0,"x_max":1111,"o":"m 555 0 l 555 278 l 833 278 l 833 0 l 555 0 m 833 278 l 833 555 l 555 555 l 555 1111 l 833 1111 l 833 833 l 1111 833 l 1111 278 l 833 278 m 0 0 l 0 1389 l 278 1389 l 278 0 l 0 0 m 833 1111 l 833 1389 l 1111 1389 l 1111 1111 l 833 1111 m 278 1389 l 278 1667 l 833 1667 l 833 1389 l 278 1389 z "},"ä":{"ha":1389,"x_min":0,"x_max":1111,"o":"m 833 278 l 833 555 l 278 555 l 278 278 l 833 278 m 0 0 l 0 833 l 833 833 l 833 1111 l 1111 1111 l 1111 0 l 0 0 m 0 1111 l 0 1389 l 833 1389 l 833 1111 l 0 1111 m 0 1667 l 0 1944 l 278 1944 l 278 1667 l 0 1667 m 833 1667 l 833 1944 l 1111 1944 l 1111 1667 l 833 1667 z "},"å":{"ha":1389,"x_min":0,"x_max":1111,"o":"m 833 278 l 833 555 l 278 555 l 278 278 l 833 278 m 0 0 l 0 833 l 833 833 l 833 1111 l 1111 1111 l 1111 0 l 0 0 m 0 1111 l 0 1389 l 833 1389 l 833 1111 l 0 1111 m 278 1667 l 278 1944 l 833 1944 l 833 1667 l 278 1667 m 0 1944 l 0 2500 l 278 2500 l 278 1944 l 0 1944 m 833 1944 l 833 2500 l 1111 2500 l 1111 1944 l 833 1944 m 278 2500 l 278 2778 l 833 2778 l 833 2500 l 278 2500 z "},"æ":{"ha":2222,"x_min":0,"x_max":1944,"o":"m 833 278 l 833 555 l 278 555 l 278 278 l 833 278 m 1667 833 l 1667 1111 l 1111 1111 l 1111 833 l 1667 833 m 0 0 l 0 833 l 833 833 l 833 1111 l 0 1111 l 0 1389 l 1944 1389 l 1944 555 l 1111 555 l 1111 278 l 1944 278 l 1944 0 l 0 0 z "},"ç":{"ha":1389,"x_min":0,"x_max":1111,"o":"m 278 -555 l 278 -278 l 555 -278 l 555 -555 l 278 -555 m 555 -278 l 555 0 l 278 0 l 278 278 l 833 278 l 833 -278 l 555 -278 m 833 278 l 833 555 l 1111 555 l 1111 278 l 833 278 m 0 278 l 0 1111 l 278 1111 l 278 278 l 0 278 m 833 833 l 833 1111 l 1111 1111 l 1111 833 l 833 833 m 278 1111 l 278 1389 l 833 1389 l 833 1111 l 278 1111 z "},"è":{"ha":1389,"x_min":0,"x_max":1111,"o":"m 833 833 l 833 1111 l 278 1111 l 278 833 l 833 833 m 0 0 l 0 1389 l 1111 1389 l 1111 555 l 278 555 l 278 278 l 1111 278 l 1111 0 l 0 0 m 555 1667 l 555 1944 l 1111 1944 l 1111 1667 l 555 1667 m 0 1944 l 0 2222 l 555 2222 l 555 1944 l 0 1944 z "},"é":{"ha":1389,"x_min":0,"x_max":1111,"o":"m 833 833 l 833 1111 l 278 1111 l 278 833 l 833 833 m 0 0 l 0 1389 l 1111 1389 l 1111 555 l 278 555 l 278 278 l 1111 278 l 1111 0 l 0 0 m 0 1667 l 0 1944 l 555 1944 l 555 1667 l 0 1667 m 555 1944 l 555 2222 l 1111 2222 l 1111 1944 l 555 1944 z "},"ì":{"ha":833,"x_min":0,"x_max":555,"o":"m 278 0 l 278 1389 l 555 1389 l 555 0 l 278 0 m 278 1667 l 278 1944 l 555 1944 l 555 1667 l 278 1667 m 0 1944 l 0 2222 l 278 2222 l 278 1944 l 0 1944 z "},"í":{"ha":833,"x_min":0,"x_max":555,"o":"m 0 0 l 0 1389 l 278 1389 l 278 0 l 0 0 m 0 1667 l 0 1944 l 278 1944 l 278 1667 l 0 1667 m 278 1944 l 278 2222 l 555 2222 l 555 1944 l 278 1944 z "},"ï":{"ha":1111,"x_min":0,"x_max":833,"o":"m 278 0 l 278 1389 l 555 1389 l 555 0 l 278 0 m 0 1667 l 0 1944 l 278 1944 l 278 1667 l 0 1667 m 555 1667 l 555 1944 l 833 1944 l 833 1667 l 555 1667 z "},"ð":{"ha":1389,"x_min":0,"x_max":1111,"o":"m 833 278 l 833 555 l 278 555 l 278 278 l 833 278 m 0 0 l 0 833 l 833 833 l 833 1389 l 555 1389 l 555 1111 l 278 1111 l 278 1389 l 0 1389 l 0 1667 l 278 1667 l 278 1944 l 555 1944 l 555 1667 l 1111 1667 l 1111 0 l 0 0 z "},"ñ":{"ha":1389,"x_min":0,"x_max":1111,"o":"m 0 0 l 0 1389 l 278 1389 l 278 1111 l 555 1111 l 555 833 l 278 833 l 278 0 l 0 0 m 833 0 l 833 555 l 555 555 l 555 833 l 833 833 l 833 1389 l 1111 1389 l 1111 0 l 833 0 m 0 1667 l 0 1944 l 278 1944 l 278 1667 l 0 1667 m 555 1667 l 555 1944 l 833 1944 l 833 1667 l 555 1667 m 278 1944 l 278 2222 l 555 2222 l 555 1944 l 278 1944 m 833 1944 l 833 2222 l 1111 2222 l 1111 1944 l 833 1944 z "},"þ":{"ha":1389,"x_min":0,"x_max":1111,"o":"m 833 555 l 833 833 l 278 833 l 278 555 l 833 555 m 0 0 l 0 1389 l 278 1389 l 278 1111 l 1111 1111 l 1111 278 l 278 278 l 278 0 l 0 0 z "},"Ē":{"ha":1389,"x_min":0,"x_max":1111,"o":"m 0 0 l 0 1667 l 1111 1667 l 1111 1389 l 278 1389 l 278 1111 l 1111 1111 l 1111 833 l 278 833 l 278 278 l 1111 278 l 1111 0 l 0 0 m 0 1944 l 0 2222 l 1111 2222 l 1111 1944 l 0 1944 z "},"ē":{"ha":1389,"x_min":0,"x_max":1111,"o":"m 833 833 l 833 1111 l 278 1111 l 278 833 l 833 833 m 0 0 l 0 1389 l 1111 1389 l 1111 555 l 278 555 l 278 278 l 1111 278 l 1111 0 l 0 0 m 0 1667 l 0 1944 l 1111 1944 l 1111 1667 l 0 1667 z "},"İ":{"ha":555,"x_min":0,"x_max":278,"o":"m 0 0 l 0 1667 l 278 1667 l 278 0 l 0 0 m 0 1944 l 0 2222 l 278 2222 l 278 1944 l 0 1944 z "},"ı":{"ha":555,"x_min":0,"x_max":278,"o":"m 0 0 l 0 833 l 278 833 l 278 0 l 0 0 z "},"Ɛ":{"ha":1389,"x_min":0,"x_max":1111,"o":"m 278 0 l 278 278 l 1111 278 l 1111 0 l 278 0 m 0 278 l 0 555 l 278 555 l 278 278 l 0 278 m 278 555 l 278 833 l 1111 833 l 1111 555 l 278 555 m 0 833 l 0 1111 l 278 1111 l 278 833 l 0 833 m 278 1111 l 278 1389 l 1111 1389 l 1111 1111 l 278 1111 z "},"Ɨ":{"ha":1111,"x_min":0,"x_max":833,"o":"m 278 0 l 278 833 l 0 833 l 0 1111 l 278 1111 l 278 1667 l 555 1667 l 555 1111 l 833 1111 l 833 833 l 555 833 l 555 0 l 278 0 z "},"ƚ":{"ha":1111,"x_min":0,"x_max":833,"o":"m 278 0 l 278 555 l 0 555 l 0 833 l 278 833 l 278 1389 l 555 1389 l 555 833 l 833 833 l 833 555 l 555 555 l 555 0 l 278 0 z "},"Ɵ":{"ha":1389,"x_min":0,"x_max":1111,"o":"m 278 0 l 278 278 l 833 278 l 833 0 l 278 0 m 0 278 l 0 1389 l 278 1389 l 278 1111 l 833 1111 l 833 1389 l 1111 1389 l 1111 278 l 833 278 l 833 833 l 278 833 l 278 278 l 0 278 m 278 1389 l 278 1667 l 833 1667 l 833 1389 l 278 1389 z "},"Ơ":{"ha":1667,"x_min":0,"x_max":1389,"o":"m 278 0 l 278 278 l 833 278 l 833 0 l 278 0 m 0 278 l 0 1389 l 278 1389 l 278 278 l 0 278 m 833 278 l 833 1389 l 1111 1389 l 1111 278 l 833 278 m 278 1389 l 278 1667 l 833 1667 l 833 1389 l 278 1389 m 1111 1389 l 1111 1667 l 1389 1667 l 1389 1389 l 1111 1389 z "},"ơ":{"ha":1667,"x_min":0,"x_max":1389,"o":"m 278 0 l 278 278 l 833 278 l 833 0 l 278 0 m 0 278 l 0 1111 l 278 1111 l 278 278 l 0 278 m 833 278 l 833 1111 l 1111 1111 l 1111 278 l 833 278 m 278 1111 l 278 1389 l 833 1389 l 833 1111 l 278 1111 m 1111 1111 l 1111 1389 l 1389 1389 l 1389 1111 l 1111 1111 z "},"Ƥ":{"ha":1944,"x_min":0,"x_max":1667,"o":"m 1389 1111 l 1389 1389 l 833 1389 l 833 1111 l 1389 1111 m 555 0 l 555 1389 l 278 1389 l 278 1111 l 0 1111 l 0 1667 l 1667 1667 l 1667 833 l 833 833 l 833 0 l 555 0 z "},"ǝ":{"ha":1389,"x_min":0,"x_max":1111,"o":"m 833 278 l 833 555 l 278 555 l 278 278 l 833 278 m 0 0 l 0 833 l 833 833 l 833 1111 l 0 1111 l 0 1389 l 1111 1389 l 1111 0 l 0 0 z "},"Ǳ":{"ha":2777,"x_min":0,"x_max":2500,"o":"m 1389 0 l 1389 833 l 1667 833 l 1667 278 l 2500 278 l 2500 0 l 1389 0 m 1667 833 l 1667 1111 l 1944 1111 l 1944 833 l 1667 833 m 833 278 l 833 1389 l 1111 1389 l 1111 278 l 833 278 m 0 0 l 0 1667 l 833 1667 l 833 1389 l 278 1389 l 278 278 l 833 278 l 833 0 l 0 0 m 1944 1111 l 1944 1389 l 1389 1389 l 1389 1667 l 2500 1667 l 2500 1389 l 2222 1389 l 2222 1111 l 1944 1111 z "},"ǲ":{"ha":2777,"x_min":0,"x_max":2500,"o":"m 1389 0 l 1389 555 l 1667 555 l 1667 278 l 2500 278 l 2500 0 l 1389 0 m 1667 555 l 1667 833 l 1944 833 l 1944 555 l 1667 555 m 833 278 l 833 1389 l 1111 1389 l 1111 278 l 833 278 m 1944 833 l 1944 1111 l 1389 1111 l 1389 1389 l 2500 1389 l 2500 1111 l 2222 1111 l 2222 833 l 1944 833 m 0 0 l 0 1667 l 833 1667 l 833 1389 l 278 1389 l 278 278 l 833 278 l 833 0 l 0 0 z "},"ǳ":{"ha":2777,"x_min":0,"x_max":2500,"o":"m 833 278 l 833 555 l 278 555 l 278 278 l 833 278 m 1389 0 l 1389 555 l 1667 555 l 1667 278 l 2500 278 l 2500 0 l 1389 0 m 1667 555 l 1667 833 l 1944 833 l 1944 555 l 1667 555 m 0 0 l 0 833 l 833 833 l 833 1389 l 1111 1389 l 1111 0 l 0 0 m 1944 833 l 1944 1111 l 1389 1111 l 1389 1389 l 2500 1389 l 2500 1111 l 2222 1111 l 2222 833 l 1944 833 z "},"Ƚ":{"ha":1667,"x_min":0,"x_max":1389,"o":"m 278 0 l 278 833 l 0 833 l 0 1111 l 278 1111 l 278 1667 l 555 1667 l 555 1111 l 1111 1111 l 1111 833 l 555 833 l 555 278 l 1389 278 l 1389 0 l 278 0 z "},"Α":{"ha":1389,"x_min":0,"x_max":1111,"o":"m 0 0 l 0 1389 l 278 1389 l 278 833 l 833 833 l 833 1389 l 1111 1389 l 1111 0 l 833 0 l 833 555 l 278 555 l 278 0 l 0 0 m 278 1389 l 278 1667 l 833 1667 l 833 1389 l 278 1389 z "},"Β":{"ha":1389,"x_min":0,"x_max":1111,"o":"m 833 278 l 833 833 l 1111 833 l 1111 278 l 833 278 m 833 1111 l 833 1389 l 1111 1389 l 1111 1111 l 833 1111 m 0 0 l 0 1667 l 833 1667 l 833 1389 l 278 1389 l 278 1111 l 833 1111 l 833 833 l 278 833 l 278 278 l 833 278 l 833 0 l 0 0 z "},"Γ":{"ha":1389,"x_min":0,"x_max":1111,"o":"m 0 0 l 0 1667 l 1111 1667 l 1111 1389 l 278 1389 l 278 0 l 0 0 z "},"Δ":{"ha":1389,"x_min":0,"x_max":1111,"o":"m 0 0 l 0 1389 l 278 1389 l 278 278 l 833 278 l 833 1389 l 1111 1389 l 1111 0 l 0 0 m 278 1389 l 278 1667 l 833 1667 l 833 1389 l 278 1389 z "},"Ε":{"ha":1389,"x_min":0,"x_max":1111,"o":"m 0 0 l 0 1667 l 1111 1667 l 1111 1389 l 278 1389 l 278 1111 l 1111 1111 l 1111 833 l 278 833 l 278 278 l 1111 278 l 1111 0 l 0 0 z "},"Ζ":{"ha":1389,"x_min":0,"x_max":1111,"o":"m 0 0 l 0 555 l 278 555 l 278 278 l 1111 278 l 1111 0 l 0 0 m 278 555 l 278 833 l 555 833 l 555 555 l 278 555 m 555 833 l 555 1111 l 833 1111 l 833 833 l 555 833 m 833 1111 l 833 1389 l 0 1389 l 0 1667 l 1111 1667 l 1111 1111 l 833 1111 z "},"Η":{"ha":1389,"x_min":0,"x_max":1111,"o":"m 0 0 l 0 1667 l 278 1667 l 278 1111 l 833 1111 l 833 1667 l 1111 1667 l 1111 0 l 833 0 l 833 833 l 278 833 l 278 0 l 0 0 z "},"Θ":{"ha":1389,"x_min":0,"x_max":1111,"o":"m 278 0 l 278 278 l 833 278 l 833 0 l 278 0 m 0 278 l 0 1389 l 278 1389 l 278 1111 l 833 1111 l 833 1389 l 1111 1389 l 1111 278 l 833 278 l 833 833 l 278 833 l 278 278 l 0 278 m 278 1389 l 278 1667 l 833 1667 l 833 1389 l 278 1389 z "},"Ι":{"ha":555,"x_min":0,"x_max":278,"o":"m 0 0 l 0 1667 l 278 1667 l 278 0 l 0 0 z "},"Κ":{"ha":1389,"x_min":0,"x_max":1111,"o":"m 833 0 l 833 555 l 1111 555 l 1111 0 l 833 0 m 555 555 l 555 833 l 833 833 l 833 555 l 555 555 m 555 1111 l 555 1389 l 833 1389 l 833 1111 l 555 1111 m 0 0 l 0 1667 l 278 1667 l 278 1111 l 555 1111 l 555 833 l 278 833 l 278 0 l 0 0 m 833 1389 l 833 1667 l 1111 1667 l 1111 1389 l 833 1389 z "},"Λ":{"ha":1667,"x_min":0,"x_max":1389,"o":"m 0 0 l 0 833 l 278 833 l 278 0 l 0 0 m 1111 0 l 1111 833 l 1389 833 l 1389 0 l 1111 0 m 278 833 l 278 1389 l 555 1389 l 555 833 l 278 833 m 833 833 l 833 1389 l 1111 1389 l 1111 833 l 833 833 m 555 1389 l 555 1667 l 833 1667 l 833 1389 l 555 1389 z "},"Μ":{"ha":1667,"x_min":0,"x_max":1389,"o":"m 555 833 l 555 1111 l 833 1111 l 833 833 l 555 833 m 0 0 l 0 1667 l 278 1667 l 278 1389 l 555 1389 l 555 1111 l 278 1111 l 278 0 l 0 0 m 1111 0 l 1111 1111 l 833 1111 l 833 1389 l 1111 1389 l 1111 1667 l 1389 1667 l 1389 0 l 1111 0 z "},"Ν":{"ha":1389,"x_min":0,"x_max":1111,"o":"m 0 0 l 0 1667 l 278 1667 l 278 1389 l 555 1389 l 555 1111 l 278 1111 l 278 0 l 0 0 m 833 0 l 833 833 l 555 833 l 555 1111 l 833 1111 l 833 1667 l 1111 1667 l 1111 0 l 833 0 z "},"Ξ":{"ha":1667,"x_min":0,"x_max":1389,"o":"m 0 0 l 0 278 l 1389 278 l 1389 0 l 0 0 m 278 833 l 278 1111 l 1111 1111 l 1111 833 l 278 833 m 0 1389 l 0 1667 l 1389 1667 l 1389 1389 l 0 1389 z "},"Ο":{"ha":1389,"x_min":0,"x_max":1111,"o":"m 278 0 l 278 278 l 833 278 l 833 0 l 278 0 m 0 278 l 0 1389 l 278 1389 l 278 278 l 0 278 m 833 278 l 833 1389 l 1111 1389 l 1111 278 l 833 278 m 278 1389 l 278 1667 l 833 1667 l 833 1389 l 278 1389 z "},"Π":{"ha":1667,"x_min":0,"x_max":1389,"o":"m 278 0 l 278 1389 l 0 1389 l 0 1667 l 1389 1667 l 1389 1389 l 1111 1389 l 1111 0 l 833 0 l 833 1389 l 555 1389 l 555 0 l 278 0 z "},"Ρ":{"ha":1389,"x_min":0,"x_max":1111,"o":"m 833 1111 l 833 1389 l 278 1389 l 278 1111 l 833 1111 m 0 0 l 0 1667 l 1111 1667 l 1111 833 l 278 833 l 278 0 l 0 0 z "},"Ѐ":{"ha":1389,"x_min":0,"x_max":1111,"o":"m 0 0 l 0 1667 l 1111 1667 l 1111 1389 l 278 1389 l 278 1111 l 1111 1111 l 1111 833 l 278 833 l 278 278 l 1111 278 l 1111 0 l 0 0 m 555 1944 l 555 2222 l 1111 2222 l 1111 1944 l 555 1944 m 0 2222 l 0 2500 l 555 2500 l 555 2222 l 0 2222 z "},"Ё":{"ha":1389,"x_min":0,"x_max":1111,"o":"m 0 0 l 0 1667 l 1111 1667 l 1111 1389 l 278 1389 l 278 1111 l 1111 1111 l 1111 833 l 278 833 l 278 278 l 1111 278 l 1111 0 l 0 0 m 0 1944 l 0 2222 l 278 2222 l 278 1944 l 0 1944 m 833 1944 l 833 2222 l 1111 2222 l 1111 1944 l 833 1944 z "},"Ђ":{"ha":1944,"x_min":0,"x_max":1667,"o":"m 1111 0 l 1111 278 l 1389 278 l 1389 0 l 1111 0 m 1389 278 l 1389 833 l 1667 833 l 1667 278 l 1389 278 m 555 0 l 555 1389 l 0 1389 l 0 1667 l 1389 1667 l 1389 1389 l 833 1389 l 833 1111 l 1389 1111 l 1389 833 l 833 833 l 833 0 l 555 0 z "},"Ѓ":{"ha":1389,"x_min":0,"x_max":1111,"o":"m 0 0 l 0 1667 l 1111 1667 l 1111 1389 l 278 1389 l 278 0 l 0 0 m 0 1944 l 0 2222 l 555 2222 l 555 1944 l 0 1944 m 555 2222 l 555 2500 l 1111 2500 l 1111 2222 l 555 2222 z "},"Є":{"ha":1389,"x_min":0,"x_max":1111,"o":"m 278 0 l 278 278 l 1111 278 l 1111 0 l 278 0 m 0 278 l 0 1389 l 278 1389 l 278 1111 l 1111 1111 l 1111 833 l 278 833 l 278 278 l 0 278 m 278 1389 l 278 1667 l 1111 1667 l 1111 1389 l 278 1389 z "},"Ѕ":{"ha":1389,"x_min":0,"x_max":1111,"o":"m 0 0 l 0 278 l 833 278 l 833 833 l 0 833 l 0 1667 l 1111 1667 l 1111 1389 l 278 1389 l 278 1111 l 1111 1111 l 1111 0 l 0 0 z "},"І":{"ha":555,"x_min":0,"x_max":278,"o":"m 0 0 l 0 1667 l 278 1667 l 278 0 l 0 0 z "},"Ї":{"ha":1111,"x_min":0,"x_max":833,"o":"m 278 0 l 278 1667 l 555 1667 l 555 0 l 278 0 m 0 1944 l 0 2222 l 278 2222 l 278 1944 l 0 1944 m 555 1944 l 555 2222 l 833 2222 l 833 1944 l 555 1944 z "},"Ј":{"ha":1389,"x_min":0,"x_max":1111,"o":"m 278 0 l 278 278 l 833 278 l 833 0 l 278 0 m 0 278 l 0 555 l 278 555 l 278 278 l 0 278 m 833 278 l 833 1667 l 1111 1667 l 1111 278 l 833 278 z "},"Љ":{"ha":2500,"x_min":0,"x_max":2222,"o":"m 0 0 l 0 278 l 278 278 l 278 0 l 0 0 m 1944 278 l 1944 555 l 1389 555 l 1389 278 l 1944 278 m 1111 0 l 1111 1389 l 555 1389 l 555 278 l 278 278 l 278 1667 l 1389 1667 l 1389 833 l 2222 833 l 2222 0 l 1111 0 z "},"Њ":{"ha":2222,"x_min":0,"x_max":1944,"o":"m 1667 278 l 1667 555 l 1111 555 l 1111 278 l 1667 278 m 0 0 l 0 1667 l 278 1667 l 278 1111 l 833 1111 l 833 1667 l 1111 1667 l 1111 833 l 1944 833 l 1944 0 l 833 0 l 833 833 l 278 833 l 278 0 l 0 0 z "},"Ћ":{"ha":1944,"x_min":0,"x_max":1667,"o":"m 1389 0 l 1389 833 l 1667 833 l 1667 0 l 1389 0 m 555 0 l 555 1389 l 0 1389 l 0 1667 l 1389 1667 l 1389 1389 l 833 1389 l 833 1111 l 1389 1111 l 1389 833 l 833 833 l 833 0 l 555 0 z "},"Ќ":{"ha":1389,"x_min":0,"x_max":1111,"o":"m 833 0 l 833 555 l 1111 555 l 1111 0 l 833 0 m 555 555 l 555 833 l 833 833 l 833 555 l 555 555 m 555 1111 l 555 1389 l 833 1389 l 833 1111 l 555 1111 m 0 0 l 0 1667 l 278 1667 l 278 1111 l 555 1111 l 555 833 l 278 833 l 278 0 l 0 0 m 833 1389 l 833 1667 l 1111 1667 l 1111 1389 l 833 1389 m 0 1944 l 0 2222 l 555 2222 l 555 1944 l 0 1944 m 555 2222 l 555 2500 l 1111 2500 l 1111 2222 l 555 2222 z "},"Ѝ":{"ha":1389,"x_min":0,"x_max":1111,"o":"m 0 0 l 0 1667 l 278 1667 l 278 1111 l 555 1111 l 555 833 l 278 833 l 278 0 l 0 0 m 833 0 l 833 1111 l 555 1111 l 555 1389 l 833 1389 l 833 1667 l 1111 1667 l 1111 0 l 833 0 m 555 1944 l 555 2222 l 1111 2222 l 1111 1944 l 555 1944 m 0 2222 l 0 2500 l 555 2500 l 555 2222 l 0 2222 z "},"Ў":{"ha":1389,"x_min":0,"x_max":1111,"o":"m 0 0 l 0 278 l 833 278 l 833 555 l 0 555 l 0 1667 l 278 1667 l 278 833 l 833 833 l 833 1667 l 1111 1667 l 1111 0 l 0 0 z "},"Џ":{"ha":1667,"x_min":0,"x_max":1389,"o":"m 555 -278 l 555 0 l 0 0 l 0 1667 l 278 1667 l 278 278 l 1111 278 l 1111 1667 l 1389 1667 l 1389 0 l 833 0 l 833 -278 l 555 -278 z "},"А":{"ha":1389,"x_min":0,"x_max":1111,"o":"m 0 0 l 0 1389 l 278 1389 l 278 833 l 833 833 l 833 1389 l 1111 1389 l 1111 0 l 833 0 l 833 555 l 278 555 l 278 0 l 0 0 m 278 1389 l 278 1667 l 833 1667 l 833 1389 l 278 1389 z "},"Б":{"ha":1389,"x_min":0,"x_max":1111,"o":"m 833 278 l 833 833 l 1111 833 l 1111 278 l 833 278 m 0 0 l 0 1667 l 1111 1667 l 1111 1389 l 278 1389 l 278 1111 l 833 1111 l 833 833 l 278 833 l 278 278 l 833 278 l 833 0 l 0 0 z "},"В":{"ha":1389,"x_min":0,"x_max":1111,"o":"m 833 278 l 833 833 l 1111 833 l 1111 278 l 833 278 m 833 1111 l 833 1389 l 1111 1389 l 1111 1111 l 833 1111 m 0 0 l 0 1667 l 833 1667 l 833 1389 l 278 1389 l 278 1111 l 833 1111 l 833 833 l 278 833 l 278 278 l 833 278 l 833 0 l 0 0 z "},"Г":{"ha":1389,"x_min":0,"x_max":1111,"o":"m 0 0 l 0 1667 l 1111 1667 l 1111 1389 l 278 1389 l 278 0 l 0 0 z "},"Д":{"ha":1667,"x_min":0,"x_max":1389,"o":"m 833 278 l 833 1389 l 555 1389 l 555 278 l 833 278 m 0 -278 l 0 278 l 278 278 l 278 1667 l 1111 1667 l 1111 278 l 1389 278 l 1389 -278 l 1111 -278 l 1111 0 l 278 0 l 278 -278 l 0 -278 z "},"Е":{"ha":1389,"x_min":0,"x_max":1111,"o":"m 0 0 l 0 1667 l 1111 1667 l 1111 1389 l 278 1389 l 278 1111 l 1111 1111 l 1111 833 l 278 833 l 278 278 l 1111 278 l 1111 0 l 0 0 z "},"Ж":{"ha":1667,"x_min":0,"x_max":1389,"o":"m 0 0 l 0 555 l 278 555 l 278 0 l 0 0 m 1111 0 l 1111 555 l 1389 555 l 1389 0 l 1111 0 m 0 1111 l 0 1667 l 278 1667 l 278 1111 l 0 1111 m 555 0 l 555 555 l 278 555 l 278 1111 l 555 1111 l 555 1667 l 833 1667 l 833 1111 l 1111 1111 l 1111 555 l 833 555 l 833 0 l 555 0 m 1111 1111 l 1111 1667 l 1389 1667 l 1389 1111 l 1111 1111 z "},"З":{"ha":1389,"x_min":0,"x_max":1111,"o":"m 0 0 l 0 278 l 833 278 l 833 0 l 0 0 m 833 278 l 833 833 l 1111 833 l 1111 278 l 833 278 m 0 833 l 0 1111 l 833 1111 l 833 833 l 0 833 m 833 1111 l 833 1389 l 1111 1389 l 1111 1111 l 833 1111 m 0 1389 l 0 1667 l 833 1667 l 833 1389 l 0 1389 z "},"И":{"ha":1389,"x_min":0,"x_max":1111,"o":"m 0 0 l 0 1667 l 278 1667 l 278 1111 l 555 1111 l 555 833 l 278 833 l 278 0 l 0 0 m 833 0 l 833 1111 l 555 1111 l 555 1389 l 833 1389 l 833 1667 l 1111 1667 l 1111 0 l 833 0 z "},"Й":{"ha":1389,"x_min":0,"x_max":1111,"o":"m 0 0 l 0 1667 l 278 1667 l 278 1111 l 555 1111 l 555 833 l 278 833 l 278 0 l 0 0 m 833 0 l 833 1111 l 555 1111 l 555 1389 l 833 1389 l 833 1667 l 1111 1667 l 1111 0 l 833 0 m 278 1944 l 278 2222 l 833 2222 l 833 1944 l 278 1944 m 0 2222 l 0 2500 l 278 2500 l 278 2222 l 0 2222 m 833 2222 l 833 2500 l 1111 2500 l 1111 2222 l 833 2222 z "},"К":{"ha":1389,"x_min":0,"x_max":1111,"o":"m 833 0 l 833 555 l 1111 555 l 1111 0 l 833 0 m 555 555 l 555 833 l 833 833 l 833 555 l 555 555 m 555 1111 l 555 1389 l 833 1389 l 833 1111 l 555 1111 m 0 0 l 0 1667 l 278 1667 l 278 1111 l 555 1111 l 555 833 l 278 833 l 278 0 l 0 0 m 833 1389 l 833 1667 l 1111 1667 l 1111 1389 l 833 1389 z "},"Л":{"ha":1667,"x_min":0,"x_max":1389,"o":"m 0 0 l 0 278 l 278 278 l 278 0 l 0 0 m 1111 0 l 1111 1389 l 555 1389 l 555 278 l 278 278 l 278 1667 l 1389 1667 l 1389 0 l 1111 0 z "},"М":{"ha":1667,"x_min":0,"x_max":1389,"o":"m 555 833 l 555 1111 l 833 1111 l 833 833 l 555 833 m 0 0 l 0 1667 l 278 1667 l 278 1389 l 555 1389 l 555 1111 l 278 1111 l 278 0 l 0 0 m 1111 0 l 1111 1111 l 833 1111 l 833 1389 l 1111 1389 l 1111 1667 l 1389 1667 l 1389 0 l 1111 0 z "},"Н":{"ha":1389,"x_min":0,"x_max":1111,"o":"m 0 0 l 0 1667 l 278 1667 l 278 1111 l 833 1111 l 833 1667 l 1111 1667 l 1111 0 l 833 0 l 833 833 l 278 833 l 278 0 l 0 0 z "},"О":{"ha":1389,"x_min":0,"x_max":1111,"o":"m 278 0 l 278 278 l 833 278 l 833 0 l 278 0 m 0 278 l 0 1389 l 278 1389 l 278 278 l 0 278 m 833 278 l 833 1389 l 1111 1389 l 1111 278 l 833 278 m 278 1389 l 278 1667 l 833 1667 l 833 1389 l 278 1389 z "},"П":{"ha":1389,"x_min":0,"x_max":1111,"o":"m 0 0 l 0 1667 l 1111 1667 l 1111 0 l 833 0 l 833 1389 l 278 1389 l 278 0 l 0 0 z "},"Р":{"ha":1389,"x_min":0,"x_max":1111,"o":"m 833 1111 l 833 1389 l 1111 1389 l 1111 1111 l 833 1111 m 0 0 l 0 1667 l 833 1667 l 833 1389 l 278 1389 l 278 1111 l 833 1111 l 833 833 l 278 833 l 278 0 l 0 0 z "},"С":{"ha":1389,"x_min":0,"x_max":1111,"o":"m 278 0 l 278 278 l 833 278 l 833 0 l 278 0 m 833 278 l 833 555 l 1111 555 l 1111 278 l 833 278 m 0 278 l 0 1389 l 278 1389 l 278 278 l 0 278 m 833 1111 l 833 1389 l 1111 1389 l 1111 1111 l 833 1111 m 278 1389 l 278 1667 l 833 1667 l 833 1389 l 278 1389 z "},"Т":{"ha":1667,"x_min":0,"x_max":1389,"o":"m 555 0 l 555 1389 l 0 1389 l 0 1667 l 1389 1667 l 1389 1389 l 833 1389 l 833 0 l 555 0 z "},"У":{"ha":1389,"x_min":0,"x_max":1111,"o":"m 0 0 l 0 278 l 833 278 l 833 833 l 0 833 l 0 1667 l 278 1667 l 278 1111 l 833 1111 l 833 1667 l 1111 1667 l 1111 0 l 0 0 z "},"Ф":{"ha":1667,"x_min":0,"x_max":1389,"o":"m 0 555 l 0 1111 l 278 1111 l 278 555 l 0 555 m 1111 555 l 1111 1111 l 1389 1111 l 1389 555 l 1111 555 m 555 0 l 555 278 l 278 278 l 278 555 l 555 555 l 555 1111 l 278 1111 l 278 1389 l 555 1389 l 555 1667 l 833 1667 l 833 1389 l 1111 1389 l 1111 1111 l 833 1111 l 833 555 l 1111 555 l 1111 278 l 833 278 l 833 0 l 555 0 z "},"Х":{"ha":1667,"x_min":0,"x_max":1389,"o":"m 0 0 l 0 278 l 278 278 l 278 0 l 0 0 m 1111 0 l 1111 278 l 1389 278 l 1389 0 l 1111 0 m 278 278 l 278 555 l 555 555 l 555 278 l 278 278 m 833 278 l 833 555 l 1111 555 l 1111 278 l 833 278 m 555 555 l 555 833 l 833 833 l 833 555 l 555 555 m 278 833 l 278 1111 l 555 1111 l 555 833 l 278 833 m 833 833 l 833 1111 l 1111 1111 l 1111 833 l 833 833 m 0 1111 l 0 1667 l 278 1667 l 278 1111 l 0 1111 m 1111 1111 l 1111 1667 l 1389 1667 l 1389 1111 l 1111 1111 z "},"Ц":{"ha":1667,"x_min":0,"x_max":1389,"o":"m 1111 -278 l 1111 0 l 0 0 l 0 1667 l 278 1667 l 278 278 l 833 278 l 833 1667 l 1111 1667 l 1111 278 l 1389 278 l 1389 -278 l 1111 -278 z "},"Ч":{"ha":1389,"x_min":0,"x_max":1111,"o":"m 833 0 l 833 833 l 0 833 l 0 1667 l 278 1667 l 278 1111 l 833 1111 l 833 1667 l 1111 1667 l 1111 0 l 833 0 z "},"Ш":{"ha":1667,"x_min":0,"x_max":1389,"o":"m 0 0 l 0 1667 l 278 1667 l 278 278 l 555 278 l 555 1667 l 833 1667 l 833 278 l 1111 278 l 1111 1667 l 1389 1667 l 1389 0 l 0 0 z "},"Щ":{"ha":1944,"x_min":0,"x_max":1667,"o":"m 1389 -278 l 1389 0 l 0 0 l 0 1667 l 278 1667 l 278 278 l 555 278 l 555 1667 l 833 1667 l 833 278 l 1111 278 l 1111 1667 l 1389 1667 l 1389 278 l 1667 278 l 1667 -278 l 1389 -278 z "},"Ъ":{"ha":1667,"x_min":0,"x_max":1389,"o":"m 1111 278 l 1111 555 l 555 555 l 555 278 l 1111 278 m 278 0 l 278 1389 l 0 1389 l 0 1667 l 555 1667 l 555 833 l 1389 833 l 1389 0 l 278 0 z "},"Ы":{"ha":1944,"x_min":0,"x_max":1667,"o":"m 833 278 l 833 555 l 278 555 l 278 278 l 833 278 m 0 0 l 0 1667 l 278 1667 l 278 833 l 1111 833 l 1111 0 l 0 0 m 1389 0 l 1389 1667 l 1667 1667 l 1667 0 l 1389 0 z "},"Ь":{"ha":1389,"x_min":0,"x_max":1111,"o":"m 833 278 l 833 555 l 278 555 l 278 278 l 833 278 m 0 0 l 0 1667 l 278 1667 l 278 833 l 1111 833 l 1111 0 l 0 0 z "},"Э":{"ha":1389,"x_min":0,"x_max":1111,"o":"m 0 0 l 0 278 l 833 278 l 833 0 l 0 0 m 833 278 l 833 833 l 0 833 l 0 1111 l 833 1111 l 833 1389 l 1111 1389 l 1111 278 l 833 278 m 0 1389 l 0 1667 l 833 1667 l 833 1389 l 0 1389 z "},"Ю":{"ha":2222,"x_min":0,"x_max":1944,"o":"m 1111 0 l 1111 278 l 1667 278 l 1667 0 l 1111 0 m 1667 278 l 1667 1389 l 1944 1389 l 1944 278 l 1667 278 m 0 0 l 0 1667 l 278 1667 l 278 1111 l 833 1111 l 833 1389 l 1111 1389 l 1111 278 l 833 278 l 833 833 l 278 833 l 278 0 l 0 0 m 1111 1389 l 1111 1667 l 1667 1667 l 1667 1389 l 1111 1389 z "},"Я":{"ha":1389,"x_min":0,"x_max":1111,"o":"m 0 0 l 0 833 l 278 833 l 278 0 l 0 0 m 0 1111 l 0 1389 l 278 1389 l 278 1111 l 0 1111 m 833 0 l 833 833 l 278 833 l 278 1111 l 833 1111 l 833 1389 l 278 1389 l 278 1667 l 1111 1667 l 1111 0 l 833 0 z "},"а":{"ha":1389,"x_min":0,"x_max":1111,"o":"m 833 278 l 833 555 l 278 555 l 278 278 l 833 278 m 0 0 l 0 833 l 833 833 l 833 1111 l 1111 1111 l 1111 0 l 0 0 m 0 1111 l 0 1389 l 833 1389 l 833 1111 l 0 1111 z "},"б":{"ha":1389,"x_min":0,"x_max":1111,"o":"m 278 0 l 278 278 l 833 278 l 833 0 l 278 0 m 833 278 l 833 555 l 1111 555 l 1111 278 l 833 278 m 0 278 l 0 1111 l 278 1111 l 278 833 l 833 833 l 833 555 l 278 555 l 278 278 l 0 278 m 278 1111 l 278 1389 l 833 1389 l 833 1667 l 1111 1667 l 1111 1111 l 278 1111 z "},"в":{"ha":1389,"x_min":0,"x_max":1111,"o":"m 833 278 l 833 555 l 1111 555 l 1111 278 l 833 278 m 833 833 l 833 1111 l 1111 1111 l 1111 833 l 833 833 m 0 0 l 0 1389 l 833 1389 l 833 1111 l 278 1111 l 278 833 l 833 833 l 833 555 l 278 555 l 278 278 l 833 278 l 833 0 l 0 0 z "},"г":{"ha":1389,"x_min":0,"x_max":1111,"o":"m 0 0 l 0 1389 l 1111 1389 l 1111 1111 l 278 1111 l 278 0 l 0 0 z "},"д":{"ha":1667,"x_min":0,"x_max":1389,"o":"m 833 278 l 833 1111 l 555 1111 l 555 278 l 833 278 m 0 -278 l 0 278 l 278 278 l 278 1389 l 1111 1389 l 1111 278 l 1389 278 l 1389 -278 l 1111 -278 l 1111 0 l 278 0 l 278 -278 l 0 -278 z "},"е":{"ha":1389,"x_min":0,"x_max":1111,"o":"m 833 833 l 833 1111 l 278 1111 l 278 833 l 833 833 m 0 0 l 0 1389 l 1111 1389 l 1111 555 l 278 555 l 278 278 l 1111 278 l 1111 0 l 0 0 z "},"ж":{"ha":1667,"x_min":0,"x_max":1389,"o":"m 0 0 l 0 555 l 278 555 l 278 0 l 0 0 m 1111 0 l 1111 555 l 1389 555 l 1389 0 l 1111 0 m 0 1111 l 0 1389 l 278 1389 l 278 1111 l 0 1111 m 555 0 l 555 555 l 278 555 l 278 1111 l 555 1111 l 555 1389 l 833 1389 l 833 1111 l 1111 1111 l 1111 555 l 833 555 l 833 0 l 555 0 m 1111 1111 l 1111 1389 l 1389 1389 l 1389 1111 l 1111 1111 z "},"з":{"ha":1389,"x_min":0,"x_max":1111,"o":"m 0 0 l 0 278 l 833 278 l 833 0 l 0 0 m 833 278 l 833 555 l 1111 555 l 1111 278 l 833 278 m 0 555 l 0 833 l 833 833 l 833 555 l 0 555 m 833 833 l 833 1111 l 1111 1111 l 1111 833 l 833 833 m 0 1111 l 0 1389 l 833 1389 l 833 1111 l 0 1111 z "},"и":{"ha":1389,"x_min":0,"x_max":1111,"o":"m 0 0 l 0 1389 l 278 1389 l 278 833 l 555 833 l 555 555 l 278 555 l 278 0 l 0 0 m 833 0 l 833 833 l 555 833 l 555 1111 l 833 1111 l 833 1389 l 1111 1389 l 1111 0 l 833 0 z "},"й":{"ha":1389,"x_min":0,"x_max":1111,"o":"m 0 0 l 0 1389 l 278 1389 l 278 833 l 555 833 l 555 555 l 278 555 l 278 0 l 0 0 m 833 0 l 833 833 l 555 833 l 555 1111 l 833 1111 l 833 1389 l 1111 1389 l 1111 0 l 833 0 m 278 1667 l 278 1944 l 833 1944 l 833 1667 l 278 1667 m 0 1944 l 0 2222 l 278 2222 l 278 1944 l 0 1944 m 833 1944 l 833 2222 l 1111 2222 l 1111 1944 l 833 1944 z "},"к":{"ha":1389,"x_min":0,"x_max":1111,"o":"m 833 0 l 833 278 l 1111 278 l 1111 0 l 833 0 m 555 278 l 555 555 l 833 555 l 833 278 l 555 278 m 555 833 l 555 1111 l 833 1111 l 833 833 l 555 833 m 0 0 l 0 1389 l 278 1389 l 278 833 l 555 833 l 555 555 l 278 555 l 278 0 l 0 0 m 833 1111 l 833 1389 l 1111 1389 l 1111 1111 l 833 1111 z "},"л":{"ha":1667,"x_min":0,"x_max":1389,"o":"m 0 0 l 0 278 l 278 278 l 278 0 l 0 0 m 1111 0 l 1111 1111 l 555 1111 l 555 278 l 278 278 l 278 1389 l 1389 1389 l 1389 0 l 1111 0 z "},"м":{"ha":1667,"x_min":0,"x_max":1389,"o":"m 555 555 l 555 833 l 833 833 l 833 555 l 555 555 m 0 0 l 0 1389 l 278 1389 l 278 1111 l 555 1111 l 555 833 l 278 833 l 278 0 l 0 0 m 1111 0 l 1111 833 l 833 833 l 833 1111 l 1111 1111 l 1111 1389 l 1389 1389 l 1389 0 l 1111 0 z "},"н":{"ha":1389,"x_min":0,"x_max":1111,"o":"m 0 0 l 0 1389 l 278 1389 l 278 833 l 833 833 l 833 1389 l 1111 1389 l 1111 0 l 833 0 l 833 555 l 278 555 l 278 0 l 0 0 z "},"о":{"ha":1389,"x_min":0,"x_max":1111,"o":"m 278 0 l 278 278 l 833 278 l 833 0 l 278 0 m 0 278 l 0 1111 l 278 1111 l 278 278 l 0 278 m 833 278 l 833 1111 l 1111 1111 l 1111 278 l 833 278 m 278 1111 l 278 1389 l 833 1389 l 833 1111 l 278 1111 z "},"п":{"ha":1389,"x_min":0,"x_max":1111,"o":"m 0 0 l 0 1389 l 1111 1389 l 1111 0 l 833 0 l 833 1111 l 278 1111 l 278 0 l 0 0 z "},"р":{"ha":1389,"x_min":0,"x_max":1111,"o":"m 833 833 l 833 1111 l 278 1111 l 278 833 l 833 833 m 0 0 l 0 1389 l 1111 1389 l 1111 555 l 278 555 l 278 0 l 0 0 z "},"с":{"ha":1389,"x_min":0,"x_max":1111,"o":"m 278 0 l 278 278 l 833 278 l 833 0 l 278 0 m 833 278 l 833 555 l 1111 555 l 1111 278 l 833 278 m 0 278 l 0 1111 l 278 1111 l 278 278 l 0 278 m 833 833 l 833 1111 l 1111 1111 l 1111 833 l 833 833 m 278 1111 l 278 1389 l 833 1389 l 833 1111 l 278 1111 z "},"т":{"ha":1667,"x_min":0,"x_max":1389,"o":"m 555 0 l 555 1111 l 0 1111 l 0 1389 l 1389 1389 l 1389 1111 l 833 1111 l 833 0 l 555 0 z "},"у":{"ha":1389,"x_min":0,"x_max":1111,"o":"m 0 0 l 0 278 l 833 278 l 833 555 l 0 555 l 0 1389 l 278 1389 l 278 833 l 833 833 l 833 1389 l 1111 1389 l 1111 0 l 0 0 z "},"ф":{"ha":1667,"x_min":0,"x_max":1389,"o":"m 0 555 l 0 833 l 278 833 l 278 555 l 0 555 m 1111 555 l 1111 833 l 1389 833 l 1389 555 l 1111 555 m 555 0 l 555 278 l 278 278 l 278 555 l 555 555 l 555 833 l 278 833 l 278 1111 l 555 1111 l 555 1389 l 833 1389 l 833 1111 l 1111 1111 l 1111 833 l 833 833 l 833 555 l 1111 555 l 1111 278 l 833 278 l 833 0 l 555 0 z "},"х":{"ha":1667,"x_min":0,"x_max":1389,"o":"m 0 0 l 0 278 l 278 278 l 278 0 l 0 0 m 1111 0 l 1111 278 l 1389 278 l 1389 0 l 1111 0 m 278 278 l 278 555 l 555 555 l 555 278 l 278 278 m 833 278 l 833 555 l 1111 555 l 1111 278 l 833 278 m 555 555 l 555 833 l 833 833 l 833 555 l 555 555 m 278 833 l 278 1111 l 555 1111 l 555 833 l 278 833 m 833 833 l 833 1111 l 1111 1111 l 1111 833 l 833 833 m 0 1111 l 0 1389 l 278 1389 l 278 1111 l 0 1111 m 1111 1111 l 1111 1389 l 1389 1389 l 1389 1111 l 1111 1111 z "},"ц":{"ha":1667,"x_min":0,"x_max":1389,"o":"m 1111 -278 l 1111 0 l 0 0 l 0 1389 l 278 1389 l 278 278 l 833 278 l 833 1389 l 1111 1389 l 1111 278 l 1389 278 l 1389 -278 l 1111 -278 z "},"ч":{"ha":1389,"x_min":0,"x_max":1111,"o":"m 833 0 l 833 555 l 0 555 l 0 1389 l 278 1389 l 278 833 l 833 833 l 833 1389 l 1111 1389 l 1111 0 l 833 0 z "},"ш":{"ha":1667,"x_min":0,"x_max":1389,"o":"m 0 0 l 0 1389 l 278 1389 l 278 278 l 555 278 l 555 1389 l 833 1389 l 833 278 l 1111 278 l 1111 1389 l 1389 1389 l 1389 0 l 0 0 z "},"щ":{"ha":1944,"x_min":0,"x_max":1667,"o":"m 1389 -278 l 1389 0 l 0 0 l 0 1389 l 278 1389 l 278 278 l 555 278 l 555 1389 l 833 1389 l 833 278 l 1111 278 l 1111 1389 l 1389 1389 l 1389 278 l 1667 278 l 1667 -278 l 1389 -278 z "},"ъ":{"ha":1667,"x_min":0,"x_max":1389,"o":"m 1111 278 l 1111 555 l 555 555 l 555 278 l 1111 278 m 278 0 l 278 1111 l 0 1111 l 0 1389 l 555 1389 l 555 833 l 1389 833 l 1389 0 l 278 0 z "},"ы":{"ha":1944,"x_min":0,"x_max":1667,"o":"m 833 278 l 833 555 l 278 555 l 278 278 l 833 278 m 0 0 l 0 1389 l 278 1389 l 278 833 l 1111 833 l 1111 0 l 0 0 m 1389 0 l 1389 1389 l 1667 1389 l 1667 0 l 1389 0 z "},"ь":{"ha":1389,"x_min":0,"x_max":1111,"o":"m 833 278 l 833 555 l 278 555 l 278 278 l 833 278 m 0 0 l 0 1389 l 278 1389 l 278 833 l 1111 833 l 1111 0 l 0 0 z "},"э":{"ha":1389,"x_min":0,"x_max":1111,"o":"m 0 0 l 0 278 l 833 278 l 833 0 l 0 0 m 833 278 l 833 555 l 0 555 l 0 833 l 833 833 l 833 1111 l 1111 1111 l 1111 278 l 833 278 m 0 1111 l 0 1389 l 833 1389 l 833 1111 l 0 1111 z "},"ю":{"ha":2222,"x_min":0,"x_max":1944,"o":"m 1111 0 l 1111 278 l 1667 278 l 1667 0 l 1111 0 m 1667 278 l 1667 1111 l 1944 1111 l 1944 278 l 1667 278 m 0 0 l 0 1389 l 278 1389 l 278 833 l 833 833 l 833 1111 l 1111 1111 l 1111 278 l 833 278 l 833 555 l 278 555 l 278 0 l 0 0 m 1111 1111 l 1111 1389 l 1667 1389 l 1667 1111 l 1111 1111 z "},"я":{"ha":1389,"x_min":0,"x_max":1111,"o":"m 0 0 l 0 555 l 278 555 l 278 0 l 0 0 m 0 833 l 0 1111 l 278 1111 l 278 833 l 0 833 m 833 0 l 833 555 l 278 555 l 278 833 l 833 833 l 833 1111 l 278 1111 l 278 1389 l 1111 1389 l 1111 0 l 833 0 z "},"ѐ":{"ha":1389,"x_min":0,"x_max":1111,"o":"m 833 833 l 833 1111 l 278 1111 l 278 833 l 833 833 m 0 0 l 0 1389 l 1111 1389 l 1111 555 l 278 555 l 278 278 l 1111 278 l 1111 0 l 0 0 m 555 1667 l 555 1944 l 1111 1944 l 1111 1667 l 555 1667 m 0 1944 l 0 2222 l 555 2222 l 555 1944 l 0 1944 z "},"ё":{"ha":1389,"x_min":0,"x_max":1111,"o":"m 833 833 l 833 1111 l 278 1111 l 278 833 l 833 833 m 0 0 l 0 1389 l 1111 1389 l 1111 555 l 278 555 l 278 278 l 1111 278 l 1111 0 l 0 0 m 0 1667 l 0 1944 l 278 1944 l 278 1667 l 0 1667 m 833 1667 l 833 1944 l 1111 1944 l 1111 1667 l 833 1667 z "},"ђ":{"ha":1389,"x_min":0,"x_max":1111,"o":"m 555 -555 l 555 -278 l 833 -278 l 833 -555 l 555 -555 m 833 -278 l 833 555 l 1111 555 l 1111 -278 l 833 -278 m 278 0 l 278 1111 l 0 1111 l 0 1389 l 278 1389 l 278 1667 l 555 1667 l 555 1389 l 833 1389 l 833 1111 l 555 1111 l 555 833 l 833 833 l 833 555 l 555 555 l 555 0 l 278 0 z "},"ѓ":{"ha":1389,"x_min":0,"x_max":1111,"o":"m 0 0 l 0 1389 l 1111 1389 l 1111 1111 l 278 1111 l 278 0 l 0 0 m 0 1667 l 0 1944 l 555 1944 l 555 1667 l 0 1667 m 555 1944 l 555 2222 l 1111 2222 l 1111 1944 l 555 1944 z "},"є":{"ha":1389,"x_min":0,"x_max":1111,"o":"m 278 0 l 278 278 l 1111 278 l 1111 0 l 278 0 m 0 278 l 0 1111 l 278 1111 l 278 833 l 1111 833 l 1111 555 l 278 555 l 278 278 l 0 278 m 278 1111 l 278 1389 l 1111 1389 l 1111 1111 l 278 1111 z "},"ѕ":{"ha":1389,"x_min":0,"x_max":1111,"o":"m 0 0 l 0 278 l 833 278 l 833 555 l 0 555 l 0 1389 l 1111 1389 l 1111 1111 l 278 1111 l 278 833 l 1111 833 l 1111 0 l 0 0 z "},"і":{"ha":555,"x_min":0,"x_max":278,"o":"m 0 0 l 0 1111 l 278 1111 l 278 0 l 0 0 m 0 1389 l 0 1667 l 278 1667 l 278 1389 l 0 1389 z "},"ї":{"ha":1111,"x_min":0,"x_max":833,"o":"m 278 0 l 278 1111 l 555 1111 l 555 0 l 278 0 m 0 1389 l 0 1667 l 278 1667 l 278 1389 l 0 1389 m 555 1389 l 555 1667 l 833 1667 l 833 1389 l 555 1389 z "},"ј":{"ha":1389,"x_min":0,"x_max":1111,"o":"m 278 0 l 278 278 l 833 278 l 833 0 l 278 0 m 0 278 l 0 555 l 278 555 l 278 278 l 0 278 m 833 278 l 833 1111 l 1111 1111 l 1111 278 l 833 278 m 833 1389 l 833 1667 l 1111 1667 l 1111 1389 l 833 1389 z "},"љ":{"ha":2500,"x_min":0,"x_max":2222,"o":"m 0 0 l 0 278 l 278 278 l 278 0 l 0 0 m 1944 278 l 1944 555 l 1389 555 l 1389 278 l 1944 278 m 1111 0 l 1111 1111 l 555 1111 l 555 278 l 278 278 l 278 1389 l 1389 1389 l 1389 833 l 2222 833 l 2222 0 l 1111 0 z "},"њ":{"ha":2222,"x_min":0,"x_max":1944,"o":"m 1667 278 l 1667 555 l 1111 555 l 1111 278 l 1667 278 m 0 0 l 0 1389 l 278 1389 l 278 833 l 833 833 l 833 1389 l 1111 1389 l 1111 833 l 1944 833 l 1944 0 l 833 0 l 833 555 l 278 555 l 278 0 l 0 0 z "},"ћ":{"ha":1389,"x_min":0,"x_max":1111,"o":"m 833 0 l 833 555 l 1111 555 l 1111 0 l 833 0 m 278 0 l 278 1111 l 0 1111 l 0 1389 l 278 1389 l 278 1667 l 555 1667 l 555 1389 l 833 1389 l 833 1111 l 555 1111 l 555 833 l 833 833 l 833 555 l 555 555 l 555 0 l 278 0 z "},"ќ":{"ha":1389,"x_min":0,"x_max":1111,"o":"m 833 0 l 833 278 l 1111 278 l 1111 0 l 833 0 m 555 278 l 555 555 l 833 555 l 833 278 l 555 278 m 555 833 l 555 1111 l 833 1111 l 833 833 l 555 833 m 0 0 l 0 1389 l 278 1389 l 278 833 l 555 833 l 555 555 l 278 555 l 278 0 l 0 0 m 833 1111 l 833 1389 l 1111 1389 l 1111 1111 l 833 1111 m 0 1667 l 0 1944 l 555 1944 l 555 1667 l 0 1667 m 555 1944 l 555 2222 l 1111 2222 l 1111 1944 l 555 1944 z "},"ѝ":{"ha":1389,"x_min":0,"x_max":1111,"o":"m 0 0 l 0 1389 l 278 1389 l 278 833 l 555 833 l 555 555 l 278 555 l 278 0 l 0 0 m 833 0 l 833 833 l 555 833 l 555 1111 l 833 1111 l 833 1389 l 1111 1389 l 1111 0 l 833 0 m 555 1667 l 555 1944 l 1111 1944 l 1111 1667 l 555 1667 m 0 1944 l 0 2222 l 555 2222 l 555 1944 l 0 1944 z "},"ў":{"ha":1389,"x_min":0,"x_max":1111,"o":"m 0 0 l 0 278 l 833 278 l 833 555 l 0 555 l 0 1389 l 278 1389 l 278 833 l 833 833 l 833 1389 l 1111 1389 l 1111 0 l 0 0 m 278 1667 l 278 1944 l 833 1944 l 833 1667 l 278 1667 m 0 1944 l 0 2222 l 278 2222 l 278 1944 l 0 1944 m 833 1944 l 833 2222 l 1111 2222 l 1111 1944 l 833 1944 z "},"џ":{"ha":1389,"x_min":0,"x_max":1111,"o":"m 555 -278 l 555 0 l 0 0 l 0 1389 l 278 1389 l 278 278 l 833 278 l 833 1389 l 1111 1389 l 1111 0 l 833 0 l 833 -278 l 555 -278 z "},"Ѣ":{"ha":1944,"x_min":0,"x_max":1667,"o":"m 1389 278 l 1389 833 l 833 833 l 833 278 l 1389 278 m 555 0 l 555 1389 l 0 1389 l 0 1667 l 555 1667 l 555 1944 l 833 1944 l 833 1667 l 1389 1667 l 1389 1389 l 833 1389 l 833 1111 l 1667 1111 l 1667 0 l 555 0 z "},"ѣ":{"ha":1944,"x_min":0,"x_max":1667,"o":"m 1389 278 l 1389 555 l 833 555 l 833 278 l 1389 278 m 555 0 l 555 1111 l 0 1111 l 0 1389 l 555 1389 l 555 1944 l 833 1944 l 833 1389 l 1389 1389 l 1389 1111 l 833 1111 l 833 833 l 1667 833 l 1667 0 l 555 0 z "},"Ѵ":{"ha":1944,"x_min":0,"x_max":1667,"o":"m 555 0 l 555 278 l 833 278 l 833 0 l 555 0 m 278 278 l 278 555 l 555 555 l 555 278 l 278 278 m 833 278 l 833 555 l 1111 555 l 1111 278 l 833 278 m 0 555 l 0 1944 l 278 1944 l 278 555 l 0 555 m 1111 555 l 1111 1944 l 1667 1944 l 1667 1667 l 1389 1667 l 1389 555 l 1111 555 z "},"ѵ":{"ha":1944,"x_min":0,"x_max":1667,"o":"m 555 0 l 555 278 l 833 278 l 833 0 l 555 0 m 278 278 l 278 555 l 555 555 l 555 278 l 278 278 m 833 278 l 833 555 l 1111 555 l 1111 278 l 833 278 m 0 555 l 0 1667 l 278 1667 l 278 555 l 0 555 m 1111 555 l 1111 1667 l 1667 1667 l 1667 1389 l 1389 1389 l 1389 555 l 1111 555 z "},"Ѷ":{"ha":1944,"x_min":0,"x_max":1667,"o":"m 555 0 l 555 278 l 833 278 l 833 0 l 555 0 m 278 278 l 278 555 l 555 555 l 555 278 l 278 278 m 833 278 l 833 555 l 1111 555 l 1111 278 l 833 278 m 0 555 l 0 1944 l 278 1944 l 278 555 l 0 555 m 1111 555 l 1111 1944 l 1667 1944 l 1667 1667 l 1389 1667 l 1389 555 l 1111 555 m 278 2222 l 278 2500 l 555 2500 l 555 2222 l 278 2222 m 1111 2222 l 1111 2500 l 1389 2500 l 1389 2222 l 1111 2222 m 0 2500 l 0 2778 l 278 2778 l 278 2500 l 0 2500 m 833 2500 l 833 2778 l 1111 2778 l 1111 2500 l 833 2500 z "},"ѷ":{"ha":1944,"x_min":0,"x_max":1667,"o":"m 555 0 l 555 278 l 833 278 l 833 0 l 555 0 m 278 278 l 278 555 l 555 555 l 555 278 l 278 278 m 833 278 l 833 555 l 1111 555 l 1111 278 l 833 278 m 0 555 l 0 1667 l 278 1667 l 278 555 l 0 555 m 1111 555 l 1111 1667 l 1667 1667 l 1667 1389 l 1389 1389 l 1389 555 l 1111 555 m 278 1944 l 278 2222 l 555 2222 l 555 1944 l 278 1944 m 1111 1944 l 1111 2222 l 1389 2222 l 1389 1944 l 1111 1944 m 0 2222 l 0 2500 l 278 2500 l 278 2222 l 0 2222 m 833 2222 l 833 2500 l 1111 2500 l 1111 2222 l 833 2222 z "},"Ѹ":{"ha":2777,"x_min":0,"x_max":2500,"o":"m 278 0 l 278 278 l 833 278 l 833 0 l 278 0 m 0 278 l 0 1389 l 278 1389 l 278 278 l 0 278 m 833 278 l 833 1389 l 1111 1389 l 1111 278 l 833 278 m 1389 0 l 1389 278 l 2222 278 l 2222 555 l 1389 555 l 1389 1389 l 1667 1389 l 1667 833 l 2222 833 l 2222 1389 l 2500 1389 l 2500 0 l 1389 0 m 278 1389 l 278 1667 l 833 1667 l 833 1389 l 278 1389 z "},"ѹ":{"ha":2777,"x_min":0,"x_max":2500,"o":"m 278 0 l 278 278 l 833 278 l 833 0 l 278 0 m 0 278 l 0 1111 l 278 1111 l 278 278 l 0 278 m 833 278 l 833 1111 l 1111 1111 l 1111 278 l 833 278 m 278 1111 l 278 1389 l 833 1389 l 833 1111 l 278 1111 m 1389 0 l 1389 278 l 2222 278 l 2222 555 l 1389 555 l 1389 1389 l 1667 1389 l 1667 833 l 2222 833 l 2222 1389 l 2500 1389 l 2500 0 l 1389 0 z "},"Ҍ":{"ha":1667,"x_min":0,"x_max":1389,"o":"m 1111 278 l 1111 833 l 555 833 l 555 278 l 1111 278 m 278 0 l 278 1389 l 0 1389 l 0 1667 l 278 1667 l 278 1944 l 555 1944 l 555 1667 l 833 1667 l 833 1389 l 555 1389 l 555 1111 l 1389 1111 l 1389 0 l 278 0 z "},"ҍ":{"ha":1667,"x_min":0,"x_max":1389,"o":"m 1111 278 l 1111 555 l 555 555 l 555 278 l 1111 278 m 278 0 l 278 1389 l 0 1389 l 0 1667 l 278 1667 l 278 1944 l 555 1944 l 555 1667 l 833 1667 l 833 1389 l 555 1389 l 555 833 l 1389 833 l 1389 0 l 278 0 z "},"Ґ":{"ha":1389,"x_min":0,"x_max":1111,"o":"m 0 0 l 0 1667 l 833 1667 l 833 1944 l 1111 1944 l 1111 1389 l 278 1389 l 278 0 l 0 0 z "},"ґ":{"ha":1389,"x_min":0,"x_max":1111,"o":"m 0 0 l 0 1389 l 833 1389 l 833 1667 l 1111 1667 l 1111 1111 l 278 1111 l 278 0 l 0 0 z "},"Ғ":{"ha":1667,"x_min":0,"x_max":1389,"o":"m 278 0 l 278 555 l 0 555 l 0 833 l 278 833 l 278 1667 l 1389 1667 l 1389 1389 l 555 1389 l 555 833 l 833 833 l 833 555 l 555 555 l 555 0 l 278 0 z "},"ғ":{"ha":1667,"x_min":0,"x_max":1389,"o":"m 278 0 l 278 555 l 0 555 l 0 833 l 278 833 l 278 1389 l 1389 1389 l 1389 1111 l 555 1111 l 555 833 l 833 833 l 833 555 l 555 555 l 555 0 l 278 0 z "},"Ң":{"ha":1667,"x_min":0,"x_max":1389,"o":"m 1111 -278 l 1111 0 l 833 0 l 833 833 l 278 833 l 278 0 l 0 0 l 0 1667 l 278 1667 l 278 1111 l 833 1111 l 833 1667 l 1111 1667 l 1111 278 l 1389 278 l 1389 -278 l 1111 -278 z "},"ң":{"ha":1667,"x_min":0,"x_max":1389,"o":"m 1111 -278 l 1111 0 l 833 0 l 833 555 l 278 555 l 278 0 l 0 0 l 0 1389 l 278 1389 l 278 833 l 833 833 l 833 1389 l 1111 1389 l 1111 278 l 1389 278 l 1389 -278 l 1111 -278 z "},"Ҥ":{"ha":1667,"x_min":0,"x_max":1389,"o":"m 0 0 l 0 1667 l 278 1667 l 278 1111 l 833 1111 l 833 1667 l 1389 1667 l 1389 1389 l 1111 1389 l 1111 0 l 833 0 l 833 833 l 278 833 l 278 0 l 0 0 z "},"ҥ":{"ha":1667,"x_min":0,"x_max":1389,"o":"m 0 0 l 0 1389 l 278 1389 l 278 833 l 833 833 l 833 1389 l 1389 1389 l 1389 1111 l 1111 1111 l 1111 0 l 833 0 l 833 555 l 278 555 l 278 0 l 0 0 z "},"Ӕ":{"ha":2222,"x_min":0,"x_max":1944,"o":"m 0 0 l 0 1389 l 278 1389 l 278 833 l 833 833 l 833 1389 l 278 1389 l 278 1667 l 1944 1667 l 1944 1389 l 1111 1389 l 1111 1111 l 1944 1111 l 1944 833 l 1111 833 l 1111 278 l 1944 278 l 1944 0 l 833 0 l 833 555 l 278 555 l 278 0 l 0 0 z "},"ӕ":{"ha":2222,"x_min":0,"x_max":1944,"o":"m 833 278 l 833 555 l 278 555 l 278 278 l 833 278 m 1667 833 l 1667 1111 l 1111 1111 l 1111 833 l 1667 833 m 0 0 l 0 833 l 833 833 l 833 1111 l 0 1111 l 0 1389 l 1944 1389 l 1944 555 l 1111 555 l 1111 278 l 1944 278 l 1944 0 l 0 0 z "},"Ḁ":{"ha":1389,"x_min":0,"x_max":1111,"o":"m 278 -555 l 278 -278 l 555 -278 l 555 -555 l 278 -555 m 0 0 l 0 1389 l 278 1389 l 278 833 l 833 833 l 833 1389 l 1111 1389 l 1111 0 l 833 0 l 833 555 l 278 555 l 278 0 l 0 0 m 278 1389 l 278 1667 l 833 1667 l 833 1389 l 278 1389 z "},"ḁ":{"ha":1389,"x_min":0,"x_max":1111,"o":"m 278 -555 l 278 -278 l 555 -278 l 555 -555 l 278 -555 m 833 278 l 833 555 l 278 555 l 278 278 l 833 278 m 0 0 l 0 833 l 833 833 l 833 1111 l 1111 1111 l 1111 0 l 0 0 m 0 1111 l 0 1389 l 833 1389 l 833 1111 l 0 1111 z "},"Ḃ":{"ha":1389,"x_min":0,"x_max":1111,"o":"m 833 278 l 833 833 l 1111 833 l 1111 278 l 833 278 m 833 1111 l 833 1389 l 1111 1389 l 1111 1111 l 833 1111 m 0 0 l 0 1667 l 833 1667 l 833 1389 l 278 1389 l 278 1111 l 833 1111 l 833 833 l 278 833 l 278 278 l 833 278 l 833 0 l 0 0 m 278 1944 l 278 2222 l 555 2222 l 555 1944 l 278 1944 z "},"ḃ":{"ha":1389,"x_min":0,"x_max":1111,"o":"m 833 278 l 833 555 l 278 555 l 278 278 l 833 278 m 0 0 l 0 1389 l 278 1389 l 278 833 l 1111 833 l 1111 0 l 0 0 m 555 1111 l 555 1389 l 833 1389 l 833 1111 l 555 1111 z "},"Ḅ":{"ha":1389,"x_min":0,"x_max":1111,"o":"m 278 -555 l 278 -278 l 555 -278 l 555 -555 l 278 -555 m 833 278 l 833 833 l 1111 833 l 1111 278 l 833 278 m 833 1111 l 833 1389 l 1111 1389 l 1111 1111 l 833 1111 m 0 0 l 0 1667 l 833 1667 l 833 1389 l 278 1389 l 278 1111 l 833 1111 l 833 833 l 278 833 l 278 278 l 833 278 l 833 0 l 0 0 z "},"ḅ":{"ha":1389,"x_min":0,"x_max":1111,"o":"m 278 -555 l 278 -278 l 555 -278 l 555 -555 l 278 -555 m 833 278 l 833 555 l 278 555 l 278 278 l 833 278 m 0 0 l 0 1389 l 278 1389 l 278 833 l 1111 833 l 1111 0 l 0 0 z "},"Ḇ":{"ha":1389,"x_min":0,"x_max":1111,"o":"m 278 -555 l 278 -278 l 833 -278 l 833 -555 l 278 -555 m 833 278 l 833 833 l 1111 833 l 1111 278 l 833 278 m 833 1111 l 833 1389 l 1111 1389 l 1111 1111 l 833 1111 m 0 0 l 0 1667 l 833 1667 l 833 1389 l 278 1389 l 278 1111 l 833 1111 l 833 833 l 278 833 l 278 278 l 833 278 l 833 0 l 0 0 z "},"ḇ":{"ha":1389,"x_min":0,"x_max":1111,"o":"m 278 -555 l 278 -278 l 833 -278 l 833 -555 l 278 -555 m 833 278 l 833 555 l 278 555 l 278 278 l 833 278 m 0 0 l 0 1389 l 278 1389 l 278 833 l 1111 833 l 1111 0 l 0 0 z "},"Ḉ":{"ha":1389,"x_min":0,"x_max":1111,"o":"m 278 -555 l 278 -278 l 555 -278 l 555 -555 l 278 -555 m 555 -278 l 555 0 l 278 0 l 278 278 l 833 278 l 833 -278 l 555 -278 m 833 278 l 833 555 l 1111 555 l 1111 278 l 833 278 m 0 278 l 0 1389 l 278 1389 l 278 278 l 0 278 m 833 1111 l 833 1389 l 1111 1389 l 1111 1111 l 833 1111 m 278 1389 l 278 1667 l 833 1667 l 833 1389 l 278 1389 m 0 1944 l 0 2222 l 555 2222 l 555 1944 l 0 1944 m 555 2222 l 555 2500 l 1111 2500 l 1111 2222 l 555 2222 z "},"ḉ":{"ha":1389,"x_min":0,"x_max":1111,"o":"m 278 -555 l 278 -278 l 555 -278 l 555 -555 l 278 -555 m 555 -278 l 555 0 l 278 0 l 278 278 l 833 278 l 833 -278 l 555 -278 m 833 278 l 833 555 l 1111 555 l 1111 278 l 833 278 m 0 278 l 0 1111 l 278 1111 l 278 278 l 0 278 m 833 833 l 833 1111 l 1111 1111 l 1111 833 l 833 833 m 278 1111 l 278 1389 l 833 1389 l 833 1111 l 278 1111 m 0 1667 l 0 1944 l 555 1944 l 555 1667 l 0 1667 m 555 1944 l 555 2222 l 1111 2222 l 1111 1944 l 555 1944 z "},"Ḋ":{"ha":1389,"x_min":0,"x_max":1111,"o":"m 833 278 l 833 1389 l 1111 1389 l 1111 278 l 833 278 m 0 0 l 0 1667 l 833 1667 l 833 1389 l 278 1389 l 278 278 l 833 278 l 833 0 l 0 0 m 278 1944 l 278 2222 l 555 2222 l 555 1944 l 278 1944 z "},"ḋ":{"ha":1389,"x_min":0,"x_max":1111,"o":"m 833 278 l 833 555 l 278 555 l 278 278 l 833 278 m 278 1111 l 278 1389 l 555 1389 l 555 1111 l 278 1111 m 0 0 l 0 833 l 833 833 l 833 1389 l 1111 1389 l 1111 0 l 0 0 z "},"Ḍ":{"ha":1389,"x_min":0,"x_max":1111,"o":"m 278 -555 l 278 -278 l 555 -278 l 555 -555 l 278 -555 m 833 278 l 833 1389 l 1111 1389 l 1111 278 l 833 278 m 0 0 l 0 1667 l 833 1667 l 833 1389 l 278 1389 l 278 278 l 833 278 l 833 0 l 0 0 z "},"ḍ":{"ha":1389,"x_min":0,"x_max":1111,"o":"m 278 -555 l 278 -278 l 555 -278 l 555 -555 l 278 -555 m 833 278 l 833 555 l 278 555 l 278 278 l 833 278 m 0 0 l 0 833 l 833 833 l 833 1389 l 1111 1389 l 1111 0 l 0 0 z "},"Ḏ":{"ha":1389,"x_min":0,"x_max":1111,"o":"m 278 -555 l 278 -278 l 833 -278 l 833 -555 l 278 -555 m 833 278 l 833 1389 l 1111 1389 l 1111 278 l 833 278 m 0 0 l 0 1667 l 833 1667 l 833 1389 l 278 1389 l 278 278 l 833 278 l 833 0 l 0 0 z "},"ḏ":{"ha":1389,"x_min":0,"x_max":1111,"o":"m 278 -555 l 278 -278 l 833 -278 l 833 -555 l 278 -555 m 833 278 l 833 555 l 278 555 l 278 278 l 833 278 m 0 0 l 0 833 l 833 833 l 833 1389 l 1111 1389 l 1111 0 l 0 0 z "},"Ḑ":{"ha":1389,"x_min":0,"x_max":1111,"o":"m 555 -833 l 555 -555 l 278 -555 l 278 -278 l 833 -278 l 833 -833 l 555 -833 m 833 278 l 833 1389 l 1111 1389 l 1111 278 l 833 278 m 0 0 l 0 1667 l 833 1667 l 833 1389 l 278 1389 l 278 278 l 833 278 l 833 0 l 0 0 z "},"ḑ":{"ha":1389,"x_min":0,"x_max":1111,"o":"m 555 -833 l 555 -555 l 278 -555 l 278 -278 l 833 -278 l 833 -833 l 555 -833 m 833 278 l 833 555 l 278 555 l 278 278 l 833 278 m 0 0 l 0 833 l 833 833 l 833 1389 l 1111 1389 l 1111 0 l 0 0 z "},"Ḓ":{"ha":1389,"x_min":0,"x_max":1111,"o":"m 278 -833 l 278 -555 l 555 -555 l 555 -833 l 278 -833 m 833 -833 l 833 -555 l 1111 -555 l 1111 -833 l 833 -833 m 555 -555 l 555 -278 l 833 -278 l 833 -555 l 555 -555 m 833 278 l 833 1389 l 1111 1389 l 1111 278 l 833 278 m 0 0 l 0 1667 l 833 1667 l 833 1389 l 278 1389 l 278 278 l 833 278 l 833 0 l 0 0 z "},"ḓ":{"ha":1389,"x_min":0,"x_max":1111,"o":"m 278 -833 l 278 -555 l 555 -555 l 555 -833 l 278 -833 m 833 -833 l 833 -555 l 1111 -555 l 1111 -833 l 833 -833 m 555 -555 l 555 -278 l 833 -278 l 833 -555 l 555 -555 m 833 278 l 833 555 l 278 555 l 278 278 l 833 278 m 0 0 l 0 833 l 833 833 l 833 1389 l 1111 1389 l 1111 0 l 0 0 z "},"Ḭ":{"ha":1389,"x_min":0,"x_max":1111,"o":"m 0 -833 l 0 -555 l 278 -555 l 278 -833 l 0 -833 m 555 -833 l 555 -555 l 833 -555 l 833 -833 l 555 -833 m 278 -555 l 278 -278 l 555 -278 l 555 -555 l 278 -555 m 833 -555 l 833 -278 l 1111 -278 l 1111 -555 l 833 -555 m 278 0 l 278 1667 l 555 1667 l 555 0 l 278 0 z "},"ḭ":{"ha":1389,"x_min":0,"x_max":1111,"o":"m 0 -833 l 0 -555 l 278 -555 l 278 -833 l 0 -833 m 555 -833 l 555 -555 l 833 -555 l 833 -833 l 555 -833 m 278 -555 l 278 -278 l 555 -278 l 555 -555 l 278 -555 m 833 -555 l 833 -278 l 1111 -278 l 1111 -555 l 833 -555 m 278 0 l 278 833 l 555 833 l 555 0 l 278 0 m 278 1111 l 278 1389 l 555 1389 l 555 1111 l 278 1111 z "},"Ṫ":{"ha":1667,"x_min":0,"x_max":1389,"o":"m 555 0 l 555 1389 l 0 1389 l 0 1667 l 1389 1667 l 1389 1389 l 833 1389 l 833 0 l 555 0 m 555 1944 l 555 2222 l 833 2222 l 833 1944 l 555 1944 z "},"ṫ":{"ha":1389,"x_min":0,"x_max":1111,"o":"m 0 0 l 0 1389 l 278 1389 l 278 833 l 1111 833 l 1111 555 l 278 555 l 278 278 l 1111 278 l 1111 0 l 0 0 m 0 1667 l 0 1944 l 278 1944 l 278 1667 l 0 1667 z "},"Ṭ":{"ha":1667,"x_min":0,"x_max":1389,"o":"m 555 -555 l 555 -278 l 833 -278 l 833 -555 l 555 -555 m 555 0 l 555 1389 l 0 1389 l 0 1667 l 1389 1667 l 1389 1389 l 833 1389 l 833 0 l 555 0 z "},"ṭ":{"ha":1389,"x_min":0,"x_max":1111,"o":"m 555 -555 l 555 -278 l 833 -278 l 833 -555 l 555 -555 m 0 0 l 0 1389 l 278 1389 l 278 833 l 1111 833 l 1111 555 l 278 555 l 278 278 l 1111 278 l 1111 0 l 0 0 z "},"Ṯ":{"ha":1667,"x_min":0,"x_max":1389,"o":"m 278 -555 l 278 -278 l 1111 -278 l 1111 -555 l 278 -555 m 555 0 l 555 1389 l 0 1389 l 0 1667 l 1389 1667 l 1389 1389 l 833 1389 l 833 0 l 555 0 z "},"ṯ":{"ha":1389,"x_min":0,"x_max":1111,"o":"m 278 -555 l 278 -278 l 833 -278 l 833 -555 l 278 -555 m 0 0 l 0 1389 l 278 1389 l 278 833 l 1111 833 l 1111 555 l 278 555 l 278 278 l 1111 278 l 1111 0 l 0 0 z "},"Ṱ":{"ha":1667,"x_min":0,"x_max":1389,"o":"m 278 -833 l 278 -555 l 555 -555 l 555 -833 l 278 -833 m 833 -833 l 833 -555 l 1111 -555 l 1111 -833 l 833 -833 m 555 -555 l 555 -278 l 833 -278 l 833 -555 l 555 -555 m 555 0 l 555 1389 l 0 1389 l 0 1667 l 1389 1667 l 1389 1389 l 833 1389 l 833 0 l 555 0 z "},"ṱ":{"ha":1389,"x_min":0,"x_max":1111,"o":"m 278 -833 l 278 -555 l 555 -555 l 555 -833 l 278 -833 m 833 -833 l 833 -555 l 1111 -555 l 1111 -833 l 833 -833 m 555 -555 l 555 -278 l 833 -278 l 833 -555 l 555 -555 m 0 0 l 0 1389 l 278 1389 l 278 833 l 1111 833 l 1111 555 l 278 555 l 278 278 l 1111 278 l 1111 0 l 0 0 z "},"‘":{"ha":833,"x_min":0,"x_max":555,"o":"m 0 1111 l 0 1667 l 278 1667 l 278 1389 l 555 1389 l 555 1111 l 0 1111 z "},"’":{"ha":833,"x_min":0,"x_max":555,"o":"m 278 1111 l 278 1389 l 0 1389 l 0 1667 l 555 1667 l 555 1111 l 278 1111 z "},"“":{"ha":1667,"x_min":0,"x_max":1389,"o":"m 0 1111 l 0 1667 l 278 1667 l 278 1389 l 555 1389 l 555 1111 l 0 1111 m 833 1111 l 833 1667 l 1111 1667 l 1111 1389 l 1389 1389 l 1389 1111 l 833 1111 z "},"”":{"ha":1667,"x_min":0,"x_max":1389,"o":"m 278 1111 l 278 1389 l 0 1389 l 0 1667 l 555 1667 l 555 1111 l 278 1111 m 1111 1111 l 1111 1389 l 833 1389 l 833 1667 l 1389 1667 l 1389 1111 l 1111 1111 z "},"…":{"ha":1667,"x_min":0,"x_max":1389,"o":"m 0 0 l 0 278 l 278 278 l 278 0 l 0 0 m 555 0 l 555 278 l 833 278 l 833 0 l 555 0 m 1111 0 l 1111 278 l 1389 278 l 1389 0 l 1111 0 z "},"™":{"ha":2500,"x_min":0,"x_max":2222,"o":"m 1389 833 l 1389 1111 l 1667 1111 l 1667 833 l 1389 833 m 278 833 l 278 1389 l 0 1389 l 0 1667 l 1111 1667 l 1111 1389 l 1389 1389 l 1389 1111 l 1111 1111 l 1111 833 l 833 833 l 833 1389 l 555 1389 l 555 833 l 278 833 m 1944 833 l 1944 1111 l 1667 1111 l 1667 1389 l 1944 1389 l 1944 1667 l 2222 1667 l 2222 833 l 1944 833 z "},"ﬁ":{"ha":1944,"x_min":0,"x_max":1667,"o":"m 0 0 l 0 1389 l 1111 1389 l 1111 1111 l 278 1111 l 278 833 l 1667 833 l 1667 0 l 1389 0 l 1389 555 l 278 555 l 278 0 l 0 0 m 1389 1111 l 1389 1389 l 1667 1389 l 1667 1111 l 1389 1111 z "},"ﬂ":{"ha":1944,"x_min":0,"x_max":1667,"o":"m 0 0 l 0 1389 l 1667 1389 l 1667 0 l 1389 0 l 1389 1111 l 278 1111 l 278 833 l 1111 833 l 1111 555 l 278 555 l 278 0 l 0 0 z "}}}
